<svg width="225" height="222" viewBox="0 0 225 222" fill="none" xmlns="http://www.w3.org/2000/svg">
<g filter="url(#filter0_d_281_1209)">
<rect x="5" y="4.00024" width="107.138" height="193.455" rx="20" fill="white"/>
</g>
<ellipse cx="32.4221" cy="46.6366" rx="15.9431" ry="15.9091" fill="#E5E5E5"/>
<line x1="58.0181" y1="54.1821" x2="76.9762" y2="54.1821" stroke="#E5E5E5" stroke-width="4" stroke-linecap="round"/>
<line x1="58.0181" y1="42.7275" x2="97.3833" y2="42.7275" stroke="#D8D8D8" stroke-width="4" stroke-linecap="round"/>
<g filter="url(#filter1_d_281_1209)">
<rect x="39.437" y="84.1821" width="178.563" height="129.818" rx="20" fill="white"/>
</g>
<rect x="72.5989" y="173.273" width="109.689" height="19.0909" rx="9.54545" fill="#BD1D45"/>
<line x1="70.7725" y1="98.7275" x2="186.665" y2="98.7275" stroke="#D8D8D8" stroke-width="4" stroke-linecap="round"/>
<line x1="97.5569" y1="111.455" x2="156.054" y2="111.455" stroke="#D8D8D8" stroke-width="4" stroke-linecap="round"/>
<path d="M108.469 149.261V151.637H99.301V149.261H102.709V140.885C102.565 141.077 102.341 141.277 102.037 141.485C101.733 141.693 101.389 141.893 101.005 142.085C100.637 142.261 100.261 142.405 99.877 142.517C99.493 142.629 99.141 142.685 98.821 142.685V140.213C99.141 140.213 99.509 140.117 99.925 139.925C100.341 139.733 100.749 139.509 101.149 139.253C101.565 138.981 101.917 138.725 102.205 138.485C102.493 138.229 102.661 138.045 102.709 137.933H105.421V149.261H108.469ZM118.854 154.685V150.869H111.486V148.517L119.694 137.933H121.494V148.469H123.606V150.869H121.494V154.685H118.854ZM114.174 148.469H119.142V141.965L114.174 148.469ZM128.009 142.253V139.205H130.193V142.253H128.009ZM128.009 151.637V148.565H130.193V151.637H128.009ZM142.544 145.973C143.216 146.085 143.8 146.341 144.296 146.741C144.808 147.125 145.2 147.621 145.472 148.229C145.744 148.821 145.88 149.493 145.88 150.245C145.88 151.237 145.632 152.101 145.136 152.837C144.656 153.573 143.968 154.141 143.072 154.541C142.176 154.957 141.12 155.165 139.904 155.165C138.688 155.165 137.616 154.949 136.688 154.517C135.76 154.101 135.016 153.493 134.456 152.693L136.064 150.869C136.448 151.445 136.944 151.901 137.552 152.237C138.16 152.589 138.928 152.765 139.856 152.765C140.896 152.765 141.704 152.541 142.28 152.093C142.856 151.645 143.144 150.973 143.144 150.077C143.144 149.149 142.824 148.421 142.184 147.893C141.56 147.365 140.616 147.101 139.352 147.101H138.704V145.037H139.424C140.496 145.037 141.32 144.789 141.896 144.293C142.472 143.781 142.76 143.141 142.76 142.373C142.76 141.861 142.64 141.445 142.4 141.125C142.176 140.789 141.856 140.541 141.44 140.381C141.024 140.221 140.544 140.141 140 140.141C139.184 140.141 138.464 140.317 137.84 140.669C137.216 141.021 136.72 141.525 136.352 142.181L134.696 140.381C135.016 139.869 135.456 139.421 136.016 139.037C136.576 138.653 137.216 138.357 137.936 138.149C138.672 137.925 139.448 137.813 140.264 137.813C141.32 137.813 142.248 137.989 143.048 138.341C143.848 138.693 144.464 139.189 144.896 139.829C145.344 140.469 145.568 141.221 145.568 142.085C145.568 142.709 145.448 143.301 145.208 143.861C144.968 144.405 144.616 144.869 144.152 145.253C143.688 145.621 143.152 145.861 142.544 145.973ZM162.292 144.605C162.292 146.013 162.02 147.269 161.476 148.373C160.948 149.461 160.22 150.317 159.292 150.941C158.38 151.565 157.332 151.877 156.148 151.877C154.98 151.877 153.932 151.565 153.004 150.941C152.076 150.317 151.34 149.461 150.796 148.373C150.268 147.269 150.004 146.013 150.004 144.605C150.004 143.197 150.268 141.949 150.796 140.861C151.34 139.757 152.076 138.893 153.004 138.269C153.932 137.629 154.98 137.309 156.148 137.309C157.332 137.309 158.38 137.629 159.292 138.269C160.22 138.893 160.948 139.757 161.476 140.861C162.02 141.949 162.292 143.197 162.292 144.605ZM159.604 144.605C159.604 143.645 159.46 142.805 159.172 142.085C158.884 141.349 158.476 140.781 157.948 140.381C157.42 139.965 156.82 139.757 156.148 139.757C155.46 139.757 154.852 139.965 154.324 140.381C153.796 140.781 153.38 141.349 153.076 142.085C152.788 142.805 152.644 143.645 152.644 144.605C152.644 145.565 152.788 146.405 153.076 147.125C153.38 147.845 153.796 148.413 154.324 148.829C154.852 149.229 155.46 149.429 156.148 149.429C156.82 149.429 157.412 149.229 157.924 148.829C158.452 148.413 158.86 147.845 159.148 147.125C159.452 146.405 159.604 145.565 159.604 144.605Z" fill="#828282"/>
<path d="M101.481 184.259H102.69C102.658 184.687 102.539 185.066 102.334 185.397C102.129 185.725 101.843 185.983 101.477 186.17C101.111 186.358 100.667 186.452 100.145 186.452C99.744 186.452 99.3822 186.381 99.06 186.241C98.7406 186.097 98.4667 185.894 98.2382 185.63C98.0126 185.363 97.8397 185.044 97.7196 184.672C97.5995 184.297 97.5395 183.876 97.5395 183.411V182.923C97.5395 182.457 97.601 182.037 97.724 181.662C97.8471 181.287 98.0229 180.967 98.2514 180.704C98.4828 180.437 98.7597 180.232 99.0819 180.088C99.4071 179.945 99.7704 179.873 100.172 179.873C100.693 179.873 101.134 179.97 101.495 180.163C101.855 180.354 102.135 180.616 102.334 180.95C102.533 181.284 102.653 181.667 102.694 182.101H101.486C101.462 181.832 101.404 181.603 101.31 181.416C101.219 181.228 101.081 181.086 100.897 180.989C100.715 180.89 100.474 180.84 100.172 180.84C99.9374 180.84 99.7309 180.884 99.5522 180.972C99.3764 181.06 99.2299 181.191 99.1127 181.367C98.9955 181.54 98.9076 181.757 98.849 182.018C98.7904 182.275 98.7611 182.574 98.7611 182.914V183.411C98.7611 183.736 98.7875 184.027 98.8402 184.285C98.893 184.543 98.975 184.761 99.0863 184.94C99.1977 185.119 99.3412 185.255 99.517 185.349C99.6928 185.442 99.9022 185.489 100.145 185.489C100.441 185.489 100.682 185.442 100.866 185.349C101.054 185.255 101.196 185.117 101.292 184.936C101.392 184.754 101.455 184.528 101.481 184.259ZM105.418 182.58V186.364H104.258V181.609H105.357L105.418 182.58ZM106.864 181.578L106.846 182.659C106.782 182.647 106.709 182.639 106.627 182.633C106.548 182.627 106.473 182.624 106.403 182.624C106.224 182.624 106.067 182.649 105.932 182.699C105.798 182.746 105.685 182.814 105.594 182.905C105.506 182.996 105.439 183.107 105.392 183.239C105.345 183.368 105.319 183.515 105.313 183.679L105.062 183.648C105.062 183.346 105.093 183.066 105.154 182.809C105.216 182.551 105.305 182.325 105.423 182.132C105.54 181.938 105.686 181.789 105.862 181.684C106.041 181.575 106.246 181.521 106.477 181.521C106.542 181.521 106.611 181.527 106.684 181.539C106.76 181.547 106.82 181.561 106.864 181.578ZM110.269 186.452C109.909 186.452 109.585 186.393 109.298 186.276C109.011 186.159 108.766 185.996 108.564 185.788C108.365 185.577 108.211 185.333 108.103 185.054C107.997 184.773 107.944 184.471 107.944 184.149V183.973C107.944 183.607 107.997 183.274 108.103 182.976C108.208 182.674 108.357 182.415 108.551 182.198C108.744 181.981 108.976 181.814 109.245 181.697C109.515 181.58 109.812 181.521 110.137 181.521C110.474 181.521 110.771 181.578 111.029 181.692C111.287 181.804 111.502 181.962 111.675 182.167C111.848 182.372 111.978 182.618 112.066 182.905C112.154 183.189 112.198 183.504 112.198 183.85V184.338H108.472V183.538H111.056V183.45C111.05 183.266 111.015 183.097 110.95 182.945C110.886 182.79 110.786 182.667 110.651 182.576C110.517 182.482 110.342 182.435 110.128 182.435C109.956 182.435 109.805 182.473 109.676 182.549C109.55 182.623 109.444 182.728 109.359 182.866C109.277 183 109.216 183.162 109.175 183.349C109.134 183.537 109.113 183.745 109.113 183.973V184.149C109.113 184.348 109.14 184.533 109.192 184.703C109.248 184.873 109.329 185.021 109.434 185.146C109.542 185.27 109.671 185.366 109.821 185.437C109.973 185.504 110.146 185.538 110.339 185.538C110.582 185.538 110.802 185.491 110.998 185.397C111.198 185.3 111.371 185.158 111.517 184.971L112.102 185.577C112.002 185.724 111.867 185.864 111.697 185.999C111.53 186.134 111.328 186.244 111.091 186.329C110.853 186.411 110.58 186.452 110.269 186.452ZM116.315 185.353V183.16C116.315 182.999 116.287 182.86 116.232 182.743C116.176 182.625 116.091 182.535 115.977 182.47C115.863 182.406 115.718 182.374 115.542 182.374C115.386 182.374 115.25 182.4 115.133 182.453C115.019 182.505 114.931 182.58 114.869 182.677C114.808 182.771 114.777 182.879 114.777 183.002H113.613C113.613 182.806 113.659 182.62 113.753 182.444C113.847 182.265 113.98 182.107 114.153 181.969C114.329 181.829 114.538 181.719 114.781 181.64C115.028 181.561 115.303 181.521 115.608 181.521C115.968 181.521 116.289 181.583 116.57 181.706C116.854 181.826 117.077 182.007 117.238 182.25C117.402 182.494 117.484 182.8 117.484 183.169V185.243C117.484 185.48 117.499 185.684 117.528 185.854C117.56 186.021 117.607 186.166 117.669 186.289V186.364H116.487C116.431 186.244 116.388 186.091 116.359 185.907C116.33 185.719 116.315 185.535 116.315 185.353ZM116.478 183.468L116.487 184.158H115.753C115.571 184.158 115.411 184.177 115.274 184.215C115.136 184.25 115.023 184.303 114.935 184.373C114.847 184.44 114.781 184.522 114.738 184.619C114.694 184.713 114.672 184.82 114.672 184.94C114.672 185.057 114.698 185.163 114.751 185.256C114.806 185.35 114.885 185.425 114.988 185.48C115.093 185.533 115.217 185.56 115.357 185.56C115.562 185.56 115.741 185.519 115.893 185.437C116.046 185.352 116.164 185.249 116.249 185.129C116.334 185.009 116.38 184.895 116.385 184.786L116.719 185.287C116.678 185.407 116.617 185.535 116.535 185.669C116.453 185.804 116.347 185.93 116.218 186.047C116.09 186.165 115.934 186.261 115.753 186.337C115.571 186.414 115.36 186.452 115.12 186.452C114.812 186.452 114.537 186.39 114.294 186.267C114.051 186.144 113.859 185.976 113.718 185.762C113.577 185.548 113.507 185.305 113.507 185.032C113.507 184.78 113.554 184.558 113.648 184.364C113.741 184.171 113.881 184.008 114.065 183.876C114.25 183.742 114.478 183.641 114.751 183.573C115.026 183.503 115.341 183.468 115.696 183.468H116.478ZM121.5 181.609V182.444H118.775V181.609H121.5ZM119.505 180.44H120.669V184.993C120.669 185.133 120.688 185.242 120.727 185.318C120.765 185.394 120.822 185.445 120.898 185.472C120.974 185.498 121.065 185.511 121.17 185.511C121.247 185.511 121.317 185.507 121.381 185.498C121.446 185.489 121.5 185.48 121.544 185.472L121.548 186.342C121.452 186.374 121.342 186.4 121.219 186.421C121.099 186.441 120.962 186.452 120.81 186.452C120.549 186.452 120.321 186.408 120.125 186.32C119.928 186.229 119.776 186.084 119.668 185.885C119.559 185.683 119.505 185.416 119.505 185.085V180.44ZM125.129 186.452C124.769 186.452 124.445 186.393 124.158 186.276C123.871 186.159 123.626 185.996 123.424 185.788C123.225 185.577 123.071 185.333 122.963 185.054C122.857 184.773 122.804 184.471 122.804 184.149V183.973C122.804 183.607 122.857 183.274 122.963 182.976C123.068 182.674 123.218 182.415 123.411 182.198C123.604 181.981 123.836 181.814 124.105 181.697C124.375 181.58 124.672 181.521 124.997 181.521C125.334 181.521 125.632 181.578 125.889 181.692C126.147 181.804 126.363 181.962 126.535 182.167C126.708 182.372 126.839 182.618 126.927 182.905C127.014 183.189 127.058 183.504 127.058 183.85V184.338H123.332V183.538H125.916V183.45C125.91 183.266 125.875 183.097 125.81 182.945C125.746 182.79 125.646 182.667 125.512 182.576C125.377 182.482 125.202 182.435 124.989 182.435C124.816 182.435 124.665 182.473 124.536 182.549C124.41 182.623 124.304 182.728 124.22 182.866C124.138 183 124.076 183.162 124.035 183.349C123.994 183.537 123.973 183.745 123.973 183.973V184.149C123.973 184.348 124 184.533 124.053 184.703C124.108 184.873 124.189 185.021 124.294 185.146C124.403 185.27 124.532 185.366 124.681 185.437C124.833 185.504 125.006 185.538 125.2 185.538C125.443 185.538 125.662 185.491 125.859 185.397C126.058 185.3 126.231 185.158 126.377 184.971L126.962 185.577C126.862 185.724 126.727 185.864 126.557 185.999C126.39 186.134 126.188 186.244 125.951 186.329C125.714 186.411 125.44 186.452 125.129 186.452ZM133.767 181.609V182.444H131.043V181.609H133.767ZM131.772 180.44H132.937V184.993C132.937 185.133 132.956 185.242 132.994 185.318C133.032 185.394 133.089 185.445 133.165 185.472C133.242 185.498 133.332 185.511 133.438 185.511C133.514 185.511 133.584 185.507 133.649 185.498C133.713 185.489 133.767 185.48 133.811 185.472L133.816 186.342C133.719 186.374 133.609 186.4 133.486 186.421C133.366 186.441 133.23 186.452 133.078 186.452C132.817 186.452 132.588 186.408 132.392 186.32C132.196 186.229 132.043 186.084 131.935 185.885C131.827 185.683 131.772 185.416 131.772 185.085V180.44ZM136.491 181.609V186.364H135.327V181.609H136.491ZM135.248 180.365C135.248 180.192 135.306 180.049 135.423 179.935C135.544 179.82 135.705 179.763 135.907 179.763C136.109 179.763 136.269 179.82 136.386 179.935C136.506 180.049 136.566 180.192 136.566 180.365C136.566 180.535 136.506 180.677 136.386 180.792C136.269 180.906 136.109 180.963 135.907 180.963C135.705 180.963 135.544 180.906 135.423 180.792C135.306 180.677 135.248 180.535 135.248 180.365ZM140.27 185.538C140.434 185.538 140.58 185.505 140.709 185.441C140.838 185.376 140.941 185.286 141.017 185.168C141.096 185.051 141.139 184.915 141.144 184.76H142.239C142.233 185.082 142.142 185.371 141.966 185.625C141.79 185.88 141.556 186.083 141.263 186.232C140.973 186.378 140.648 186.452 140.288 186.452C139.921 186.452 139.602 186.39 139.33 186.267C139.057 186.144 138.83 185.973 138.648 185.753C138.47 185.533 138.335 185.278 138.244 184.988C138.156 184.698 138.112 184.388 138.112 184.057V183.916C138.112 183.585 138.156 183.274 138.244 182.984C138.335 182.694 138.47 182.439 138.648 182.22C138.83 182 139.057 181.829 139.33 181.706C139.602 181.583 139.92 181.521 140.283 181.521C140.667 181.521 141.004 181.596 141.294 181.745C141.587 181.895 141.815 182.105 141.979 182.378C142.146 182.65 142.233 182.971 142.239 183.34H141.144C141.139 183.17 141.101 183.018 141.03 182.883C140.96 182.749 140.86 182.64 140.731 182.558C140.602 182.476 140.446 182.435 140.261 182.435C140.065 182.435 139.901 182.476 139.769 182.558C139.64 182.64 139.539 182.753 139.466 182.896C139.395 183.037 139.346 183.195 139.316 183.371C139.29 183.544 139.277 183.726 139.277 183.916V184.057C139.277 184.25 139.29 184.435 139.316 184.61C139.346 184.786 139.395 184.944 139.466 185.085C139.539 185.223 139.64 185.333 139.769 185.415C139.901 185.497 140.068 185.538 140.27 185.538ZM144.892 179.609V186.364H143.732V179.609H144.892ZM147.872 181.609L145.802 183.934L144.681 185.072L144.312 184.171L145.178 183.081L146.47 181.609H147.872ZM146.685 186.364L145.213 184.149L145.987 183.397L148.03 186.364H146.685ZM151.255 186.452C150.895 186.452 150.571 186.393 150.284 186.276C149.997 186.159 149.752 185.996 149.55 185.788C149.351 185.577 149.197 185.333 149.088 185.054C148.983 184.773 148.93 184.471 148.93 184.149V183.973C148.93 183.607 148.983 183.274 149.088 182.976C149.194 182.674 149.343 182.415 149.537 182.198C149.73 181.981 149.961 181.814 150.231 181.697C150.5 181.58 150.798 181.521 151.123 181.521C151.46 181.521 151.757 181.578 152.015 181.692C152.273 181.804 152.488 181.962 152.661 182.167C152.834 182.372 152.964 182.618 153.052 182.905C153.14 183.189 153.184 183.504 153.184 183.85V184.338H149.458V183.538H152.041V183.45C152.036 183.266 152 183.097 151.936 182.945C151.872 182.79 151.772 182.667 151.637 182.576C151.502 182.482 151.328 182.435 151.114 182.435C150.941 182.435 150.791 182.473 150.662 182.549C150.536 182.623 150.43 182.728 150.345 182.866C150.263 183 150.202 183.162 150.161 183.349C150.12 183.537 150.099 183.745 150.099 183.973V184.149C150.099 184.348 150.125 184.533 150.178 184.703C150.234 184.873 150.314 185.021 150.42 185.146C150.528 185.27 150.657 185.366 150.807 185.437C150.959 185.504 151.132 185.538 151.325 185.538C151.568 185.538 151.788 185.491 151.984 185.397C152.184 185.3 152.356 185.158 152.503 184.971L153.087 185.577C152.988 185.724 152.853 185.864 152.683 185.999C152.516 186.134 152.314 186.244 152.077 186.329C151.839 186.411 151.565 186.452 151.255 186.452ZM156.932 181.609V182.444H154.207V181.609H156.932ZM154.937 180.44H156.101V184.993C156.101 185.133 156.12 185.242 156.158 185.318C156.197 185.394 156.254 185.445 156.33 185.472C156.406 185.498 156.497 185.511 156.602 185.511C156.678 185.511 156.749 185.507 156.813 185.498C156.878 185.489 156.932 185.48 156.976 185.472L156.98 186.342C156.884 186.374 156.774 186.4 156.651 186.421C156.531 186.441 156.394 186.452 156.242 186.452C155.981 186.452 155.753 186.408 155.556 186.32C155.36 186.229 155.208 186.084 155.099 185.885C154.991 185.683 154.937 185.416 154.937 185.085V180.44ZM159.748 179.965L159.621 184.443H158.641L158.513 179.965H159.748ZM158.478 185.823C158.478 185.65 158.537 185.505 158.654 185.388C158.774 185.268 158.935 185.208 159.137 185.208C159.339 185.208 159.499 185.268 159.616 185.388C159.736 185.505 159.796 185.65 159.796 185.823C159.796 185.993 159.736 186.137 159.616 186.254C159.499 186.371 159.339 186.43 159.137 186.43C158.935 186.43 158.774 186.371 158.654 186.254C158.537 186.137 158.478 185.993 158.478 185.823Z" fill="white"/>
<defs>
<filter id="filter0_d_281_1209" x="0" y="0.000244141" width="119.138" height="205.455" filterUnits="userSpaceOnUse" color-interpolation-filters="sRGB">
<feFlood flood-opacity="0" result="BackgroundImageFix"/>
<feColorMatrix in="SourceAlpha" type="matrix" values="0 0 0 0 0 0 0 0 0 0 0 0 0 0 0 0 0 0 127 0" result="hardAlpha"/>
<feMorphology radius="1" operator="dilate" in="SourceAlpha" result="effect1_dropShadow_281_1209"/>
<feOffset dx="1" dy="2"/>
<feGaussianBlur stdDeviation="2.5"/>
<feComposite in2="hardAlpha" operator="out"/>
<feColorMatrix type="matrix" values="0 0 0 0 0 0 0 0 0 0 0 0 0 0 0 0 0 0 0.15 0"/>
<feBlend mode="normal" in2="BackgroundImageFix" result="effect1_dropShadow_281_1209"/>
<feBlend mode="normal" in="SourceGraphic" in2="effect1_dropShadow_281_1209" result="shape"/>
</filter>
<filter id="filter1_d_281_1209" x="34.437" y="80.1821" width="190.563" height="141.818" filterUnits="userSpaceOnUse" color-interpolation-filters="sRGB">
<feFlood flood-opacity="0" result="BackgroundImageFix"/>
<feColorMatrix in="SourceAlpha" type="matrix" values="0 0 0 0 0 0 0 0 0 0 0 0 0 0 0 0 0 0 127 0" result="hardAlpha"/>
<feMorphology radius="1" operator="dilate" in="SourceAlpha" result="effect1_dropShadow_281_1209"/>
<feOffset dx="1" dy="2"/>
<feGaussianBlur stdDeviation="2.5"/>
<feComposite in2="hardAlpha" operator="out"/>
<feColorMatrix type="matrix" values="0 0 0 0 0 0 0 0 0 0 0 0 0 0 0 0 0 0 0.15 0"/>
<feBlend mode="normal" in2="BackgroundImageFix" result="effect1_dropShadow_281_1209"/>
<feBlend mode="normal" in="SourceGraphic" in2="effect1_dropShadow_281_1209" result="shape"/>
</filter>
</defs>
</svg>
