<svg width="39" height="27" viewBox="0 0 39 27" fill="none" xmlns="http://www.w3.org/2000/svg">
<path d="M36.2143 0H2.78571C2.0469 0 1.33834 0.284463 0.815917 0.790812C0.293494 1.29716 0 1.98392 0 2.7V24.3C0 25.0161 0.293494 25.7028 0.815917 26.2092C1.33834 26.7155 2.0469 27 2.78571 27H36.2143C36.9531 27 37.6617 26.7155 38.1841 26.2092C38.7065 25.7028 39 25.0161 39 24.3V2.7C39 1.98392 38.7065 1.29716 38.1841 0.790812C37.6617 0.284463 36.9531 0 36.2143 0ZM33.15 2.7L19.5 11.853L5.85 2.7H33.15ZM2.78571 24.3V3.9285L18.7061 14.607C18.9392 14.7638 19.2162 14.8478 19.5 14.8478C19.7838 14.8478 20.0608 14.7638 20.2939 14.607L36.2143 3.9285V24.3H2.78571Z" fill="white"/>
</svg>
