<svg width="54" height="42" viewBox="0 0 54 42" fill="none" xmlns="http://www.w3.org/2000/svg">
<path d="M8.99457 0.879C9.55717 0.316352 10.3203 0.000169912 11.116 0H42.8808C43.6765 0.000169912 44.4396 0.316352 45.0022 0.879L52.9299 8.802C55.2164 11.091 53.5961 15 50.3614 15H3.63543C0.400739 15 -1.21661 11.091 1.07288 8.802L8.99457 0.879ZM48.0029 18H5.99393V36C5.99393 37.5913 6.62621 39.1174 7.75166 40.2426C8.87712 41.3679 10.4036 42 11.9952 42H42.0016C43.5932 42 45.1197 41.3679 46.2451 40.2426C47.3706 39.1174 48.0029 37.5913 48.0029 36V18ZM17.9965 30C17.2007 30 16.4374 29.6839 15.8747 29.1213C15.312 28.5587 14.9958 27.7956 14.9958 27C14.9958 26.2044 15.312 25.4413 15.8747 24.8787C16.4374 24.3161 17.2007 24 17.9965 24C18.7923 24 19.5555 24.3161 20.1183 24.8787C20.681 25.4413 20.9971 26.2044 20.9971 27C20.9971 27.7956 20.681 28.5587 20.1183 29.1213C19.5555 29.6839 18.7923 30 17.9965 30ZM26.9984 30C26.2026 30 25.4394 29.6839 24.8766 29.1213C24.3139 28.5587 23.9978 27.7956 23.9978 27C23.9978 26.2044 24.3139 25.4413 24.8766 24.8787C25.4394 24.3161 26.2026 24 26.9984 24C27.7942 24 28.5574 24.3161 29.1202 24.8787C29.6829 25.4413 29.999 26.2044 29.999 27C29.999 27.7956 29.6829 28.5587 29.1202 29.1213C28.5574 29.6839 27.7942 30 26.9984 30ZM36.0003 30C35.2045 30 34.4413 29.6839 33.8786 29.1213C33.3158 28.5587 32.9997 27.7956 32.9997 27C32.9997 26.2044 33.3158 25.4413 33.8786 24.8787C34.4413 24.3161 35.2045 24 36.0003 24C36.7961 24 37.5594 24.3161 38.1221 24.8787C38.6848 25.4413 39.001 26.2044 39.001 27C39.001 27.7956 38.6848 28.5587 38.1221 29.1213C37.5594 29.6839 36.7961 30 36.0003 30Z" fill="#BD1D45"/>
</svg>
