<svg width="1440" height="1021" viewBox="0 0 1440 1021" fill="none" xmlns="http://www.w3.org/2000/svg">
<path d="M232.5 3.91357C87.2244 -27.9808 -2 145.554 -2 145.554V435.211C-2 435.211 102.194 373.666 185 386.5C381.888 417.016 221.618 755.956 361.5 849.5C523 957.5 749.292 746.28 937.5 810C1032.34 842.11 1037.18 987.579 1191.88 1017.53C1315.94 1041.54 1440 929.975 1440 929.975V634.315C1440 634.315 1321 720 1256.5 684.414C1123.17 610.854 1279.74 426.207 1116.5 350.666C932.5 265.516 770.001 403.332 640.396 350.666C476.658 284.13 414.32 43.831 232.5 3.91357Z" fill="#F1F6FF"/>
</svg>
