<svg width="1440" height="478" viewBox="0 0 1440 478" fill="none" xmlns="http://www.w3.org/2000/svg">
<path d="M207.5 1.31832C63.5 -11.2547 0 70.2453 0 70.2453V133.318V353.318C0 353.318 102.5 440 226 414.318C375.795 383.168 465.753 295.691 568 353.318C600.495 371.633 606.535 401.326 641.5 414.318C692.78 433.373 696.577 368.969 750 380.746C810.411 394.063 809 463.246 917 476.246C1013.15 487.819 1047.7 411.346 1144.5 414.318C1192 415.777 1233.96 414.318 1290.5 414.318C1398.5 414.318 1450.5 311.746 1450.5 311.746V133.318C1450.5 133.318 1374.33 170.193 1314.5 175.746C1208.43 185.591 1197.14 61.103 1091 70.2456C996.9 78.3514 991.164 142.603 897.5 154.746C784.288 169.422 755.428 93.0195 641.5 85.7456C552.617 80.0707 512.254 125.75 423.5 118.318C327.901 110.313 303.07 9.66274 207.5 1.31832Z" fill="url(#paint0_linear_281_1297)"/>
<defs>
<linearGradient id="paint0_linear_281_1297" x1="725.25" y1="0" x2="725.25" y2="246.447" gradientUnits="userSpaceOnUse">
<stop stop-color="#001D7F"/>
<stop offset="0.697917" stop-color="#2155C4"/>
<stop offset="1" stop-color="#3467D7"/>
</linearGradient>
</defs>
</svg>
