<svg width="212" height="214" viewBox="0 0 212 214" fill="none" xmlns="http://www.w3.org/2000/svg">
<g filter="url(#filter0_d_314_789)">
<rect x="102.543" y="4" width="102.457" height="185.363" rx="20" fill="white"/>
</g>
<ellipse cx="129.684" cy="33.6162" rx="15.2465" ry="15.2436" fill="#E5E5E5"/>
<line x1="154.689" y1="39.3687" x2="172.644" y2="39.3687" stroke="#E5E5E5" stroke-width="4" stroke-linecap="round"/>
<line x1="154.249" y1="29.7869" x2="191.719" y2="29.7869" stroke="#D8D8D8" stroke-width="4" stroke-linecap="round"/>
<g filter="url(#filter1_d_314_789)">
<rect x="5" y="81.6118" width="170.761" height="124.388" rx="20" fill="white"/>
</g>
<rect x="40.3833" y="166.889" width="104.896" height="18.2924" rx="9.14619" fill="#BD1D45"/>
<rect x="126.451" y="58.6157" width="55.4659" height="9.58172" rx="4.79086" fill="#BD1D45"/>
<path d="M66.814 176.662H68.0225C67.9902 177.09 67.8716 177.469 67.6665 177.8C67.4614 178.128 67.1758 178.386 66.8096 178.574C66.4434 178.761 65.9995 178.855 65.478 178.855C65.0767 178.855 64.7149 178.785 64.3926 178.644C64.0732 178.5 63.7993 178.297 63.5708 178.033C63.3452 177.767 63.1724 177.447 63.0523 177.075C62.9321 176.7 62.8721 176.28 62.8721 175.814V175.326C62.8721 174.86 62.9336 174.44 63.0566 174.065C63.1797 173.69 63.3555 173.371 63.584 173.107C63.8154 172.84 64.0923 172.635 64.4146 172.492C64.7398 172.348 65.103 172.276 65.5044 172.276C66.0259 172.276 66.4668 172.373 66.8272 172.566C67.1875 172.757 67.4673 173.019 67.6665 173.353C67.8657 173.687 67.9858 174.071 68.0269 174.504H66.8184C66.7949 174.235 66.7363 174.006 66.6426 173.819C66.5518 173.631 66.4141 173.489 66.2295 173.393C66.0479 173.293 65.8062 173.243 65.5044 173.243C65.27 173.243 65.0635 173.287 64.8848 173.375C64.709 173.463 64.5625 173.595 64.4453 173.771C64.3281 173.943 64.2402 174.16 64.1816 174.421C64.1231 174.679 64.0938 174.978 64.0938 175.317V175.814C64.0938 176.139 64.1201 176.431 64.1729 176.688C64.2256 176.946 64.3076 177.165 64.419 177.343C64.5303 177.522 64.6738 177.658 64.8496 177.752C65.0254 177.846 65.2349 177.893 65.478 177.893C65.7739 177.893 66.0142 177.846 66.1987 177.752C66.3862 177.658 66.5283 177.521 66.625 177.339C66.7246 177.157 66.7876 176.932 66.814 176.662ZM70.7508 174.983V178.767H69.5906V174.012H70.6892L70.7508 174.983ZM72.1966 173.981L72.179 175.062C72.1145 175.051 72.0413 175.042 71.9593 175.036C71.8802 175.03 71.8055 175.027 71.7351 175.027C71.5564 175.027 71.3997 175.052 71.2649 175.102C71.1302 175.149 71.0174 175.218 70.9266 175.309C70.8387 175.399 70.7713 175.511 70.7244 175.643C70.6775 175.771 70.6512 175.918 70.6453 176.082L70.3948 176.051C70.3948 175.75 70.4256 175.47 70.4871 175.212C70.5486 174.954 70.638 174.729 70.7552 174.535C70.8724 174.342 71.0188 174.192 71.1946 174.087C71.3733 173.979 71.5784 173.924 71.8099 173.924C71.8743 173.924 71.9432 173.93 72.0164 173.942C72.0926 173.951 72.1526 173.964 72.1966 173.981ZM75.6016 178.855C75.2413 178.855 74.9175 178.796 74.6304 178.679C74.3433 178.562 74.0987 178.399 73.8966 178.191C73.6973 177.98 73.5435 177.736 73.4351 177.458C73.3297 177.176 73.2769 176.875 73.2769 176.552V176.376C73.2769 176.01 73.3297 175.678 73.4351 175.379C73.5406 175.077 73.69 174.818 73.8834 174.601C74.0767 174.384 74.3082 174.217 74.5777 174.1C74.8472 173.983 75.1446 173.924 75.4698 173.924C75.8067 173.924 76.1041 173.981 76.3619 174.096C76.6197 174.207 76.835 174.365 77.0079 174.57C77.1807 174.775 77.3111 175.021 77.399 175.309C77.4869 175.593 77.5308 175.908 77.5308 176.253V176.741H73.8043V175.941H76.3883V175.854C76.3824 175.669 76.3472 175.5 76.2828 175.348C76.2183 175.193 76.1187 175.07 75.984 174.979C75.8492 174.885 75.6749 174.838 75.461 174.838C75.2882 174.838 75.1373 174.876 75.0084 174.953C74.8824 175.026 74.7769 175.131 74.692 175.269C74.6099 175.404 74.5484 175.565 74.5074 175.752C74.4664 175.94 74.4459 176.148 74.4459 176.376V176.552C74.4459 176.751 74.4722 176.936 74.525 177.106C74.5806 177.276 74.6612 177.424 74.7667 177.55C74.8751 177.673 75.004 177.77 75.1534 177.84C75.3057 177.907 75.4786 177.941 75.6719 177.941C75.9151 177.941 76.1348 177.894 76.3311 177.8C76.5303 177.704 76.7032 177.562 76.8497 177.374L77.4341 177.98C77.3345 178.127 77.1998 178.268 77.0299 178.402C76.8629 178.537 76.6607 178.647 76.4234 178.732C76.1861 178.814 75.9122 178.855 75.6016 178.855ZM81.6478 177.756V175.563C81.6478 175.402 81.62 175.263 81.5643 175.146C81.5086 175.029 81.4237 174.938 81.3094 174.874C81.1952 174.809 81.0501 174.777 80.8744 174.777C80.7191 174.777 80.5829 174.803 80.4657 174.856C80.3514 174.909 80.2635 174.983 80.202 175.08C80.1405 175.174 80.1097 175.282 80.1097 175.405H78.9452C78.9452 175.209 78.992 175.023 79.0858 174.847C79.1795 174.668 79.3128 174.51 79.4857 174.373C79.6615 174.232 79.8709 174.122 80.1141 174.043C80.3602 173.964 80.6356 173.924 80.9403 173.924C81.3006 173.924 81.6214 173.986 81.9027 174.109C82.1869 174.229 82.4095 174.411 82.5707 174.654C82.7347 174.897 82.8167 175.203 82.8167 175.572V177.646C82.8167 177.884 82.8314 178.087 82.8607 178.257C82.8929 178.424 82.9398 178.569 83.0013 178.692V178.767H81.8192C81.7635 178.647 81.721 178.495 81.6917 178.31C81.6624 178.123 81.6478 177.938 81.6478 177.756ZM81.8104 175.871L81.8192 176.561H81.0853C80.9037 176.561 80.744 176.58 80.6063 176.618C80.4686 176.653 80.3558 176.706 80.2679 176.776C80.18 176.844 80.1141 176.926 80.0702 177.022C80.0262 177.116 80.0042 177.223 80.0042 177.343C80.0042 177.46 80.0306 177.566 80.0833 177.66C80.139 177.753 80.2181 177.828 80.3207 177.884C80.4261 177.937 80.5492 177.963 80.6898 177.963C80.8949 177.963 81.0736 177.922 81.2259 177.84C81.3783 177.755 81.4969 177.652 81.5819 177.532C81.6668 177.412 81.7123 177.298 81.7181 177.189L82.0521 177.69C82.0111 177.811 81.9496 177.938 81.8675 178.073C81.7855 178.208 81.68 178.333 81.5511 178.451C81.4222 178.568 81.2669 178.665 81.0853 178.741C80.9037 178.817 80.6927 178.855 80.4525 178.855C80.1449 178.855 79.8695 178.793 79.6263 178.67C79.3832 178.547 79.1913 178.379 79.0506 178.165C78.91 177.951 78.8397 177.708 78.8397 177.436C78.8397 177.184 78.8866 176.961 78.9803 176.768C79.0741 176.574 79.2132 176.412 79.3978 176.28C79.5824 176.145 79.8109 176.044 80.0833 175.977C80.3587 175.906 80.6737 175.871 81.0282 175.871H81.8104ZM86.8326 174.012V174.847H84.108V174.012H86.8326ZM84.8375 172.843H86.0021V177.396C86.0021 177.537 86.0211 177.645 86.0592 177.721C86.0973 177.797 86.1544 177.849 86.2306 177.875C86.3068 177.901 86.3976 177.915 86.5031 177.915C86.5792 177.915 86.6495 177.91 86.714 177.901C86.7784 177.893 86.8326 177.884 86.8766 177.875L86.881 178.745C86.7843 178.777 86.6744 178.804 86.5514 178.824C86.4313 178.845 86.295 178.855 86.1427 178.855C85.882 178.855 85.6534 178.811 85.4572 178.723C85.2609 178.632 85.1085 178.487 85.0001 178.288C84.8917 178.086 84.8375 177.819 84.8375 177.488V172.843ZM90.4618 178.855C90.1015 178.855 89.7777 178.796 89.4906 178.679C89.2035 178.562 88.9589 178.399 88.7567 178.191C88.5575 177.98 88.4037 177.736 88.2953 177.458C88.1898 177.176 88.1371 176.875 88.1371 176.552V176.376C88.1371 176.01 88.1898 175.678 88.2953 175.379C88.4008 175.077 88.5502 174.818 88.7436 174.601C88.9369 174.384 89.1684 174.217 89.4379 174.1C89.7074 173.983 90.0048 173.924 90.33 173.924C90.6669 173.924 90.9643 173.981 91.2221 174.096C91.4799 174.207 91.6952 174.365 91.8681 174.57C92.0409 174.775 92.1713 175.021 92.2592 175.309C92.3471 175.593 92.391 175.908 92.391 176.253V176.741H88.6645V175.941H91.2484V175.854C91.2426 175.669 91.2074 175.5 91.143 175.348C91.0785 175.193 90.9789 175.07 90.8441 174.979C90.7094 174.885 90.5351 174.838 90.3212 174.838C90.1483 174.838 89.9975 174.876 89.8686 174.953C89.7426 175.026 89.6371 175.131 89.5522 175.269C89.4701 175.404 89.4086 175.565 89.3676 175.752C89.3266 175.94 89.3061 176.148 89.3061 176.376V176.552C89.3061 176.751 89.3324 176.936 89.3852 177.106C89.4408 177.276 89.5214 177.424 89.6269 177.55C89.7353 177.673 89.8642 177.77 90.0136 177.84C90.1659 177.907 90.3388 177.941 90.5321 177.941C90.7753 177.941 90.995 177.894 91.1913 177.8C91.3905 177.704 91.5634 177.562 91.7099 177.374L92.2943 177.98C92.1947 178.127 92.06 178.268 91.89 178.402C91.7231 178.537 91.5209 178.647 91.2836 178.732C91.0463 178.814 90.7724 178.855 90.4618 178.855ZM99.1001 174.012V174.847H96.3755V174.012H99.1001ZM97.1049 172.843H98.2695V177.396C98.2695 177.537 98.2885 177.645 98.3266 177.721C98.3647 177.797 98.4218 177.849 98.498 177.875C98.5742 177.901 98.665 177.915 98.7705 177.915C98.8466 177.915 98.917 177.91 98.9814 177.901C99.0459 177.893 99.1001 177.884 99.144 177.875L99.1484 178.745C99.0517 178.777 98.9419 178.804 98.8188 178.824C98.6987 178.845 98.5625 178.855 98.4101 178.855C98.1494 178.855 97.9209 178.811 97.7246 178.723C97.5283 178.632 97.3759 178.487 97.2675 178.288C97.1591 178.086 97.1049 177.819 97.1049 177.488V172.843ZM101.824 174.012V178.767H100.659V174.012H101.824ZM100.58 172.769C100.58 172.596 100.639 172.452 100.756 172.338C100.876 172.224 101.037 172.167 101.24 172.167C101.442 172.167 101.601 172.224 101.719 172.338C101.839 172.452 101.899 172.596 101.899 172.769C101.899 172.938 101.839 173.081 101.719 173.195C101.601 173.309 101.442 173.366 101.24 173.366C101.037 173.366 100.876 173.309 100.756 173.195C100.639 173.081 100.58 172.938 100.58 172.769ZM105.603 177.941C105.767 177.941 105.913 177.909 106.042 177.844C106.171 177.78 106.273 177.689 106.35 177.572C106.429 177.455 106.471 177.318 106.477 177.163H107.571C107.565 177.485 107.475 177.774 107.299 178.029C107.123 178.284 106.889 178.486 106.596 178.635C106.306 178.782 105.98 178.855 105.62 178.855C105.254 178.855 104.935 178.793 104.662 178.67C104.39 178.547 104.163 178.376 103.981 178.156C103.802 177.937 103.668 177.682 103.577 177.392C103.489 177.102 103.445 176.791 103.445 176.46V176.319C103.445 175.988 103.489 175.678 103.577 175.388C103.668 175.098 103.802 174.843 103.981 174.623C104.163 174.403 104.39 174.232 104.662 174.109C104.935 173.986 105.252 173.924 105.616 173.924C106 173.924 106.336 173.999 106.626 174.148C106.919 174.298 107.148 174.509 107.312 174.781C107.479 175.054 107.565 175.375 107.571 175.744H106.477C106.471 175.574 106.433 175.421 106.363 175.287C106.293 175.152 106.193 175.043 106.064 174.961C105.935 174.879 105.778 174.838 105.594 174.838C105.397 174.838 105.233 174.879 105.102 174.961C104.973 175.043 104.872 175.156 104.798 175.3C104.728 175.44 104.678 175.599 104.649 175.774C104.623 175.947 104.609 176.129 104.609 176.319V176.46C104.609 176.653 104.623 176.838 104.649 177.014C104.678 177.189 104.728 177.348 104.798 177.488C104.872 177.626 104.973 177.736 105.102 177.818C105.233 177.9 105.4 177.941 105.603 177.941ZM110.225 172.013V178.767H109.065V172.013H110.225ZM113.204 174.012L111.135 176.337L110.014 177.475L109.645 176.574L110.511 175.484L111.803 174.012H113.204ZM112.018 178.767L110.546 176.552L111.319 175.801L113.363 178.767H112.018ZM116.587 178.855C116.227 178.855 115.903 178.796 115.616 178.679C115.329 178.562 115.085 178.399 114.882 178.191C114.683 177.98 114.529 177.736 114.421 177.458C114.316 177.176 114.263 176.875 114.263 176.552V176.376C114.263 176.01 114.316 175.678 114.421 175.379C114.526 175.077 114.676 174.818 114.869 174.601C115.063 174.384 115.294 174.217 115.564 174.1C115.833 173.983 116.13 173.924 116.456 173.924C116.793 173.924 117.09 173.981 117.348 174.096C117.606 174.207 117.821 174.365 117.994 174.57C118.167 174.775 118.297 175.021 118.385 175.309C118.473 175.593 118.517 175.908 118.517 176.253V176.741H114.79V175.941H117.374V175.854C117.368 175.669 117.333 175.5 117.269 175.348C117.204 175.193 117.105 175.07 116.97 174.979C116.835 174.885 116.661 174.838 116.447 174.838C116.274 174.838 116.123 174.876 115.994 174.953C115.868 175.026 115.763 175.131 115.678 175.269C115.596 175.404 115.534 175.565 115.493 175.752C115.452 175.94 115.432 176.148 115.432 176.376V176.552C115.432 176.751 115.458 176.936 115.511 177.106C115.566 177.276 115.647 177.424 115.753 177.55C115.861 177.673 115.99 177.77 116.139 177.84C116.292 177.907 116.464 177.941 116.658 177.941C116.901 177.941 117.121 177.894 117.317 177.8C117.516 177.704 117.689 177.562 117.836 177.374L118.42 177.98C118.32 178.127 118.186 178.268 118.016 178.402C117.849 178.537 117.647 178.647 117.409 178.732C117.172 178.814 116.898 178.855 116.587 178.855ZM122.265 174.012V174.847H119.54V174.012H122.265ZM120.269 172.843H121.434V177.396C121.434 177.537 121.453 177.645 121.491 177.721C121.529 177.797 121.586 177.849 121.662 177.875C121.739 177.901 121.829 177.915 121.935 177.915C122.011 177.915 122.081 177.91 122.146 177.901C122.21 177.893 122.265 177.884 122.308 177.875L122.313 178.745C122.216 178.777 122.106 178.804 121.983 178.824C121.863 178.845 121.727 178.855 121.575 178.855C121.314 178.855 121.085 178.811 120.889 178.723C120.693 178.632 120.54 178.487 120.432 178.288C120.324 178.086 120.269 177.819 120.269 177.488V172.843ZM125.081 172.369L124.953 176.847H123.973L123.846 172.369H125.081ZM123.811 178.227C123.811 178.054 123.869 177.909 123.986 177.792C124.107 177.671 124.268 177.611 124.47 177.611C124.672 177.611 124.832 177.671 124.949 177.792C125.069 177.909 125.129 178.054 125.129 178.227C125.129 178.396 125.069 178.54 124.949 178.657C124.832 178.774 124.672 178.833 124.47 178.833C124.268 178.833 124.107 178.774 123.986 178.657C123.869 178.54 123.811 178.396 123.811 178.227Z" fill="white"/>
<ellipse cx="54.728" cy="127.604" rx="21.9951" ry="22.0379" fill="#E5E5E5"/>
<line x1="90.2427" y1="135.144" x2="119.626" y2="135.144" stroke="#E5E5E5" stroke-width="6" stroke-linecap="round"/>
<line x1="90.2427" y1="120.771" x2="151.184" y2="120.771" stroke="#D8D8D8" stroke-width="6" stroke-linecap="round"/>
<defs>
<filter id="filter0_d_314_789" x="97.5435" y="0" width="114.457" height="197.363" filterUnits="userSpaceOnUse" color-interpolation-filters="sRGB">
<feFlood flood-opacity="0" result="BackgroundImageFix"/>
<feColorMatrix in="SourceAlpha" type="matrix" values="0 0 0 0 0 0 0 0 0 0 0 0 0 0 0 0 0 0 127 0" result="hardAlpha"/>
<feMorphology radius="1" operator="dilate" in="SourceAlpha" result="effect1_dropShadow_314_789"/>
<feOffset dx="1" dy="2"/>
<feGaussianBlur stdDeviation="2.5"/>
<feComposite in2="hardAlpha" operator="out"/>
<feColorMatrix type="matrix" values="0 0 0 0 0 0 0 0 0 0 0 0 0 0 0 0 0 0 0.15 0"/>
<feBlend mode="normal" in2="BackgroundImageFix" result="effect1_dropShadow_314_789"/>
<feBlend mode="normal" in="SourceGraphic" in2="effect1_dropShadow_314_789" result="shape"/>
</filter>
<filter id="filter1_d_314_789" x="0" y="77.6118" width="182.761" height="136.388" filterUnits="userSpaceOnUse" color-interpolation-filters="sRGB">
<feFlood flood-opacity="0" result="BackgroundImageFix"/>
<feColorMatrix in="SourceAlpha" type="matrix" values="0 0 0 0 0 0 0 0 0 0 0 0 0 0 0 0 0 0 127 0" result="hardAlpha"/>
<feMorphology radius="1" operator="dilate" in="SourceAlpha" result="effect1_dropShadow_314_789"/>
<feOffset dx="1" dy="2"/>
<feGaussianBlur stdDeviation="2.5"/>
<feComposite in2="hardAlpha" operator="out"/>
<feColorMatrix type="matrix" values="0 0 0 0 0 0 0 0 0 0 0 0 0 0 0 0 0 0 0.15 0"/>
<feBlend mode="normal" in2="BackgroundImageFix" result="effect1_dropShadow_314_789"/>
<feBlend mode="normal" in="SourceGraphic" in2="effect1_dropShadow_314_789" result="shape"/>
</filter>
</defs>
</svg>
