<svg width="207" height="222" viewBox="0 0 207 222" fill="none" xmlns="http://www.w3.org/2000/svg">
<g filter="url(#filter0_d_281_1287)">
<rect x="5" y="4" width="102.526" height="188.934" rx="20" fill="white"/>
</g>
<path d="M5 24C5 12.9543 13.9543 4 25 4H87.5258C98.5715 4 107.526 12.9543 107.526 24V30.3323H5V24Z" fill="#002E95"/>
<rect x="21.7527" y="44.1567" width="69.0206" height="48.7147" rx="5" fill="#D8D8D8"/>
<line x1="25.2527" y1="106.488" x2="77.2218" y2="106.488" stroke="#D8D8D8" stroke-width="7" stroke-linecap="round"/>
<line x1="25.2527" y1="117.02" x2="77.2218" y2="117.02" stroke="#D8D8D8" stroke-width="7" stroke-linecap="round"/>
<line x1="25.2527" y1="127.553" x2="54.4383" y2="127.553" stroke="#D8D8D8" stroke-width="7" stroke-linecap="round"/>
<g filter="url(#filter1_d_281_1287)">
<ellipse cx="130.979" cy="146.524" rx="69.0206" ry="67.4765" fill="white"/>
</g>
<path d="M131.524 115.501C127.593 115.501 123.925 116.579 120.799 118.456C120.475 116.758 119.886 115.119 119.052 113.598C122.974 111.466 127.394 110.376 131.876 110.436C136.358 110.496 140.746 111.704 144.607 113.941C148.468 116.178 151.668 119.365 153.891 123.189C156.113 127.013 157.282 131.34 157.281 135.744H170.165C172.213 135.745 174.177 136.545 175.625 137.969C177.073 139.392 177.887 141.322 177.887 143.335V173.699C177.887 175.712 177.072 177.643 175.623 179.067C174.174 180.49 172.209 181.29 170.159 181.29H139.251C137.202 181.29 135.236 180.49 133.787 179.067C132.338 177.643 131.524 175.712 131.524 173.699V161.047C127.94 161.052 124.396 160.319 121.118 158.896C121.185 157.176 121.221 155.369 121.221 153.456V153.279C124.25 155 127.768 155.987 131.524 155.987V143.335C131.524 141.321 132.338 139.391 133.787 137.967C135.236 136.543 137.202 135.744 139.251 135.744H152.129C152.129 130.375 149.958 125.226 146.094 121.43C142.23 117.633 136.989 115.501 131.524 115.501ZM156.766 140.804C155.752 145.666 153.308 150.127 149.737 153.636C146.165 157.145 141.623 159.546 136.675 160.541V173.699C136.675 174.37 136.947 175.014 137.43 175.488C137.913 175.963 138.568 176.229 139.251 176.229H170.159C170.843 176.229 171.498 175.963 171.981 175.488C172.464 175.014 172.735 174.37 172.735 173.699V143.335C172.735 142.664 172.464 142.02 171.981 141.545C171.498 141.071 170.843 140.804 170.159 140.804H156.766ZM151.48 140.804H139.251C138.568 140.804 137.913 141.071 137.43 141.545C136.947 142.02 136.675 142.664 136.675 143.335V155.349C140.239 154.442 143.491 152.615 146.094 150.058C148.697 147.5 150.557 144.305 151.48 140.804ZM108.76 106.012C109.187 106.379 109.479 106.875 109.59 107.423C109.701 107.97 109.625 108.538 109.373 109.038C109.329 109.186 109.307 109.339 109.306 109.494C109.306 109.812 109.388 110.42 110.166 111.179C110.542 111.548 110.831 111.811 111.145 112.1C111.402 112.333 111.675 112.576 112.021 112.91C112.69 113.537 113.396 114.276 114.03 115.202C115.343 117.14 116.07 119.564 116.07 123.092C116.07 127.409 114.442 131.088 111.902 133.345L112.232 133.719C113.674 135.46 114.514 137.717 115.039 139.944C116.07 144.347 116.07 149.64 116.07 153.33V153.456C116.07 167.56 114.117 175.561 111.969 180.136C110.887 182.439 109.738 183.907 108.744 184.828C108.34 185.209 107.894 185.545 107.415 185.83C107.196 185.959 106.967 186.073 106.73 186.169C106.73 186.169 106.148 186.351 105.767 186.351C105.385 186.351 104.803 186.169 104.803 186.169C104.564 186.078 104.335 185.965 104.118 185.83C103.639 185.545 103.193 185.209 102.789 184.828C101.795 183.902 100.646 182.439 99.5644 180.136C97.4163 175.561 95.4639 167.56 95.4639 153.456V153.33C95.4639 149.635 95.4639 144.347 96.4942 139.944C97.0196 137.717 97.8593 135.46 99.3017 133.719C99.4047 133.593 99.518 133.466 99.6314 133.345C97.0917 131.088 95.4639 127.409 95.4639 123.092C95.4639 121.442 95.912 119.473 96.5302 117.657C97.1484 115.835 98.0138 113.952 99.0132 112.434C100.203 110.46 101.877 108.805 103.176 107.692C103.887 107.077 104.63 106.498 105.401 105.956L105.555 105.855L105.602 105.819L105.617 105.809L105.628 105.804C106.1 105.495 106.663 105.348 107.23 105.385C107.796 105.423 108.334 105.643 108.76 106.012ZM105.767 130.683C107.76 130.678 110.918 128.507 110.918 123.092C110.918 120.293 110.357 118.922 109.738 118.011C109.363 117.479 108.929 116.988 108.445 116.548L107.807 115.961C107.389 115.577 106.9 115.131 106.519 114.762C105.955 114.214 105.472 113.592 105.082 112.915C104.426 113.592 103.849 114.339 103.361 115.141C102.64 116.229 101.939 117.722 101.419 119.261C100.883 120.83 100.615 122.216 100.615 123.092C100.615 128.517 103.783 130.683 105.767 130.683H105.777H105.767ZM103.294 136.918C102.563 137.793 101.955 139.19 101.512 141.083C100.626 144.868 100.615 149.625 100.615 153.456C100.615 167.186 102.526 174.367 104.242 178.016C104.809 179.215 105.339 180.015 105.767 180.546C106.194 180.015 106.73 179.215 107.292 178.016C109.007 174.367 110.918 167.186 110.918 153.456C110.918 149.625 110.908 144.868 110.017 141.083C109.574 139.19 108.966 137.793 108.239 136.918C107.955 136.539 107.582 136.235 107.151 136.03C106.72 135.826 106.245 135.727 105.767 135.744H105.756C105.28 135.729 104.807 135.828 104.378 136.032C103.949 136.237 103.577 136.541 103.294 136.918Z" fill="#002E95"/>
<defs>
<filter id="filter0_d_281_1287" x="0" y="0" width="114.526" height="200.934" filterUnits="userSpaceOnUse" color-interpolation-filters="sRGB">
<feFlood flood-opacity="0" result="BackgroundImageFix"/>
<feColorMatrix in="SourceAlpha" type="matrix" values="0 0 0 0 0 0 0 0 0 0 0 0 0 0 0 0 0 0 127 0" result="hardAlpha"/>
<feMorphology radius="1" operator="dilate" in="SourceAlpha" result="effect1_dropShadow_281_1287"/>
<feOffset dx="1" dy="2"/>
<feGaussianBlur stdDeviation="2.5"/>
<feComposite in2="hardAlpha" operator="out"/>
<feColorMatrix type="matrix" values="0 0 0 0 0 0 0 0 0 0 0 0 0 0 0 0 0 0 0.15 0"/>
<feBlend mode="normal" in2="BackgroundImageFix" result="effect1_dropShadow_281_1287"/>
<feBlend mode="normal" in="SourceGraphic" in2="effect1_dropShadow_281_1287" result="shape"/>
</filter>
<filter id="filter1_d_281_1287" x="56.9587" y="75.0471" width="150.041" height="146.953" filterUnits="userSpaceOnUse" color-interpolation-filters="sRGB">
<feFlood flood-opacity="0" result="BackgroundImageFix"/>
<feColorMatrix in="SourceAlpha" type="matrix" values="0 0 0 0 0 0 0 0 0 0 0 0 0 0 0 0 0 0 127 0" result="hardAlpha"/>
<feMorphology radius="1" operator="dilate" in="SourceAlpha" result="effect1_dropShadow_281_1287"/>
<feOffset dx="1" dy="2"/>
<feGaussianBlur stdDeviation="2.5"/>
<feComposite in2="hardAlpha" operator="out"/>
<feColorMatrix type="matrix" values="0 0 0 0 0 0 0 0 0 0 0 0 0 0 0 0 0 0 0.15 0"/>
<feBlend mode="normal" in2="BackgroundImageFix" result="effect1_dropShadow_281_1287"/>
<feBlend mode="normal" in="SourceGraphic" in2="effect1_dropShadow_281_1287" result="shape"/>
</filter>
</defs>
</svg>
