<svg width="264" height="224" viewBox="0 0 264 224" fill="none" xmlns="http://www.w3.org/2000/svg">
<g filter="url(#filter0_d_281_1277)">
<rect x="31.208" y="27.1089" width="123.984" height="179.848" rx="20" fill="white"/>
</g>
<g filter="url(#filter1_d_281_1277)">
<rect x="97.7361" y="140.645" width="159.264" height="75.3555" rx="20" fill="white"/>
</g>
<path d="M31.208 47.1089C31.208 36.0632 40.1623 27.1089 51.208 27.1089H135.192C146.238 27.1089 155.192 36.0632 155.192 47.1089V56.2463H31.208V47.1089Z" fill="#C4C4C4"/>
<path d="M97.7361 157.725C97.7361 148.292 105.383 140.645 114.817 140.645H239.92C249.353 140.645 257 148.292 257 157.725H97.7361Z" fill="#002E95"/>
<rect x="44.304" y="76.3364" width="97.792" height="19.0995" rx="5" stroke="#C4C4C4" stroke-width="2"/>
<rect x="44.304" y="103.464" width="97.792" height="19.0995" rx="5" stroke="#C4C4C4" stroke-width="2"/>
<path d="M141.171 188.944V175.684H137.115V192.584H141.145H141.171H149.309V188.944H141.171ZM162.833 185.85C162.807 182.158 159.791 179.168 156.099 179.194C152.407 179.22 149.417 182.236 149.443 185.928C149.469 189.62 152.485 192.61 156.177 192.584C159.089 192.558 160.571 191.336 161.975 189.178L158.595 188.112C158.569 188.138 158.517 188.19 158.491 188.216C157.867 188.84 157.035 189.178 156.151 189.204C155.293 189.204 154.461 188.866 153.811 188.242C153.421 187.852 153.239 187.618 153.057 187.098L162.833 187.124C162.859 186.942 162.833 186.032 162.833 185.85ZM156.125 182.6C157.009 182.6 157.841 182.938 158.465 183.536C158.777 183.874 159.037 184.238 159.193 184.654H153.083C153.239 184.238 153.499 183.874 153.785 183.562C154.409 182.938 155.241 182.6 156.125 182.6ZM173.886 179.168V180.546C173.08 179.532 171.78 179.168 170.584 179.168C166.866 179.194 163.902 182.21 163.928 185.902C163.928 189.594 166.944 192.584 170.662 192.558C171.832 192.558 173.08 192.038 173.886 191.232L173.912 192.558C173.912 193.442 173.574 194.248 172.95 194.872C172.352 195.496 171.52 195.86 170.636 195.86C169.752 195.86 168.92 195.522 168.296 194.898C167.854 194.456 167.542 193.936 167.412 193.364H163.98C164.37 196.692 167.204 199.266 170.662 199.24C174.328 199.214 177.292 196.224 177.292 192.558V179.168H173.886ZM173.886 186.266C173.808 186.994 173.47 187.67 172.95 188.19C172.352 188.814 171.52 189.152 170.636 189.178C169.752 189.178 168.92 188.84 168.296 188.216C167.672 187.592 167.308 186.76 167.308 185.876C167.308 184.992 167.646 184.186 168.27 183.536C168.894 182.912 169.7 182.574 170.584 182.574C171.468 182.574 172.3 182.912 172.924 183.51C173.47 184.056 173.808 184.732 173.886 185.486V186.266ZM188.477 179.142V180.624C187.671 179.61 186.293 179.142 185.019 179.142C181.327 179.168 178.337 182.184 178.363 185.876C178.389 189.568 181.405 192.558 185.097 192.532C186.319 192.532 187.671 192.116 188.477 191.076V192.584H192.117V179.142H188.477ZM187.385 188.164C186.787 188.788 185.955 189.126 185.071 189.152C184.187 189.152 183.355 188.814 182.731 188.19C182.107 187.566 181.743 186.734 181.743 185.85C181.743 184.966 182.081 184.134 182.705 183.51C183.329 182.886 184.161 182.548 185.045 182.548C185.903 182.522 186.735 182.86 187.359 183.484C188.009 184.108 188.347 184.94 188.347 185.824C188.347 186.708 188.009 187.54 187.385 188.164ZM201.979 188.554C201.407 188.97 200.731 189.204 200.003 189.204C199.119 189.178 198.287 188.84 197.663 188.216C197.039 187.592 196.701 186.76 196.727 185.876C196.727 184.992 197.065 184.16 197.689 183.536C198.313 182.938 199.145 182.6 200.029 182.6C200.757 182.6 201.433 182.834 202.005 183.25L204.423 180.858C203.253 179.844 201.719 179.22 200.055 179.194C196.363 179.168 193.347 182.158 193.321 185.85C193.295 189.542 196.285 192.558 199.977 192.584C201.667 192.584 203.201 191.986 204.397 190.972L201.979 188.554ZM216.223 179.168H212.193L210.035 185.018L207.617 179.168H203.613L208.189 190.036L207.461 192.038C207.097 192.766 206.499 193.338 205.745 193.676C205.251 193.91 204.679 194.04 204.133 194.014V197.654C207.045 197.706 209.801 195.99 210.945 193.182L216.223 179.168Z" fill="#002E95"/>
<g filter="url(#filter2_d_281_1277)">
<ellipse cx="31.208" cy="30.1232" rx="26.208" ry="26.1232" fill="white"/>
</g>
<path d="M33.447 45.1944H27.9632C27.6196 45.1945 27.2863 45.077 27.0186 44.8616C26.7509 44.6461 26.5648 44.3456 26.4913 44.0098L25.8782 41.1705C25.0602 40.8119 24.2846 40.3636 23.5656 39.8336L20.7981 40.7153C20.4705 40.8198 20.1171 40.8091 19.7964 40.6849C19.4758 40.5607 19.2073 40.3305 19.0355 40.0326L16.2875 35.2837C16.1175 34.9855 16.0537 34.6384 16.1065 34.2992C16.1593 33.96 16.3257 33.6487 16.5783 33.4164L18.7251 31.4571C18.6275 30.5696 18.6275 29.6741 18.7251 28.7865L16.5783 26.8318C16.3253 26.5994 16.1588 26.2879 16.1059 25.9483C16.0531 25.6088 16.1171 25.2614 16.2875 24.963L19.0294 20.2111C19.2013 19.9131 19.4698 19.683 19.7904 19.5588C20.1111 19.4346 20.4645 19.4239 20.7921 19.5284L23.5596 20.41C23.9272 20.1387 24.3099 19.8855 24.7046 19.6565C25.0857 19.4425 25.4774 19.248 25.8782 19.0747L26.4928 16.2383C26.566 15.9026 26.7517 15.6019 27.0191 15.3861C27.2866 15.1704 27.6197 15.0526 27.9632 15.0522H33.447C33.7905 15.0526 34.1236 15.1704 34.3911 15.3861C34.6585 15.6019 34.8442 15.9026 34.9174 16.2383L35.5381 19.0762C36.3556 19.4348 37.1307 19.8831 37.8491 20.413L40.6181 19.5314C40.9455 19.4273 41.2986 19.4382 41.6189 19.5624C41.9392 19.6865 42.2075 19.9165 42.3793 20.2141L45.1212 24.966C45.4707 25.5794 45.3502 26.3556 44.8304 26.8333L42.6836 28.7926C42.7812 29.6801 42.7812 30.5756 42.6836 31.4632L44.8304 33.4224C45.3502 33.9017 45.4707 34.6763 45.1212 35.2897L42.3793 40.0416C42.2074 40.3396 41.9389 40.5697 41.6183 40.6939C41.2976 40.8181 40.9442 40.8288 40.6166 40.7243L37.8491 39.8427C37.1307 40.3722 36.3556 40.8201 35.5381 41.178L34.9174 44.0098C34.8439 44.3454 34.6581 44.6457 34.3907 44.8611C34.1233 45.0765 33.7903 45.1941 33.447 45.1944ZM24.1065 36.4969L25.3418 37.4012C25.6205 37.6061 25.9098 37.7945 26.2111 37.9663C26.4943 38.1306 26.7836 38.2783 27.0834 38.4124L28.489 39.0288L29.1775 42.1802H32.2357L32.9242 39.0273L34.3298 38.4109C34.943 38.1397 35.526 37.8036 36.0669 37.4072L37.3022 36.5029L40.3786 37.4826L41.9077 34.8331L39.5229 32.6583L39.6916 31.1331C39.7669 30.4655 39.7669 29.7918 39.6916 29.1256L39.5229 27.6004L41.9092 25.4212L40.3786 22.7702L37.3037 23.7498L36.0669 22.8455C35.5257 22.4472 34.9434 22.1081 34.3298 21.8342L32.9242 21.2178L32.2357 18.0665H29.1775L28.4845 21.2193L27.0834 21.8342C26.469 22.1034 25.8864 22.4401 25.3463 22.838L24.1095 23.7422L21.0361 22.7626L19.504 25.4212L21.8888 27.5929L21.7201 29.1196C21.6448 29.7873 21.6448 30.4609 21.7201 31.1271L21.8888 32.6523L19.504 34.827L21.0331 37.4765L24.1065 36.4969ZM30.6991 36.1518C29.1008 36.1518 27.5681 35.5166 26.4379 34.3861C25.3078 33.2555 24.6729 31.7222 24.6729 30.1233C24.6729 28.5245 25.3078 26.9911 26.4379 25.8606C27.5681 24.73 29.1008 24.0949 30.6991 24.0949C32.2973 24.0949 33.8301 24.73 34.9602 25.8606C36.0903 26.9911 36.7252 28.5245 36.7252 30.1233C36.7252 31.7222 36.0903 33.2555 34.9602 34.3861C33.8301 35.5166 32.2973 36.1518 30.6991 36.1518ZM30.6991 27.1091C30.1091 27.1097 29.5322 27.2836 29.0401 27.6092C28.5479 27.9348 28.1622 28.3978 27.9307 28.9407C27.6992 29.4836 27.6321 30.0826 27.7378 30.6633C27.8435 31.244 28.1173 31.7809 28.5252 32.2073C28.9331 32.6338 29.4573 32.931 30.0325 33.0622C30.6078 33.1934 31.2089 33.1527 31.7613 32.9452C32.3136 32.7377 32.793 32.3726 33.1398 31.895C33.4866 31.4175 33.6856 30.8486 33.7122 30.259V30.8618V30.1233C33.7122 29.3239 33.3947 28.5572 32.8296 27.992C32.2646 27.4267 31.4982 27.1091 30.6991 27.1091Z" fill="#BD1D45"/>
<defs>
<filter id="filter0_d_281_1277" x="26.208" y="23.1089" width="135.984" height="191.848" filterUnits="userSpaceOnUse" color-interpolation-filters="sRGB">
<feFlood flood-opacity="0" result="BackgroundImageFix"/>
<feColorMatrix in="SourceAlpha" type="matrix" values="0 0 0 0 0 0 0 0 0 0 0 0 0 0 0 0 0 0 127 0" result="hardAlpha"/>
<feMorphology radius="1" operator="dilate" in="SourceAlpha" result="effect1_dropShadow_281_1277"/>
<feOffset dx="1" dy="2"/>
<feGaussianBlur stdDeviation="2.5"/>
<feComposite in2="hardAlpha" operator="out"/>
<feColorMatrix type="matrix" values="0 0 0 0 0 0 0 0 0 0 0 0 0 0 0 0 0 0 0.15 0"/>
<feBlend mode="normal" in2="BackgroundImageFix" result="effect1_dropShadow_281_1277"/>
<feBlend mode="normal" in="SourceGraphic" in2="effect1_dropShadow_281_1277" result="shape"/>
</filter>
<filter id="filter1_d_281_1277" x="92.7361" y="136.645" width="171.264" height="87.3555" filterUnits="userSpaceOnUse" color-interpolation-filters="sRGB">
<feFlood flood-opacity="0" result="BackgroundImageFix"/>
<feColorMatrix in="SourceAlpha" type="matrix" values="0 0 0 0 0 0 0 0 0 0 0 0 0 0 0 0 0 0 127 0" result="hardAlpha"/>
<feMorphology radius="1" operator="dilate" in="SourceAlpha" result="effect1_dropShadow_281_1277"/>
<feOffset dx="1" dy="2"/>
<feGaussianBlur stdDeviation="2.5"/>
<feComposite in2="hardAlpha" operator="out"/>
<feColorMatrix type="matrix" values="0 0 0 0 0 0 0 0 0 0 0 0 0 0 0 0 0 0 0.15 0"/>
<feBlend mode="normal" in2="BackgroundImageFix" result="effect1_dropShadow_281_1277"/>
<feBlend mode="normal" in="SourceGraphic" in2="effect1_dropShadow_281_1277" result="shape"/>
</filter>
<filter id="filter2_d_281_1277" x="0" y="0" width="64.416" height="64.2463" filterUnits="userSpaceOnUse" color-interpolation-filters="sRGB">
<feFlood flood-opacity="0" result="BackgroundImageFix"/>
<feColorMatrix in="SourceAlpha" type="matrix" values="0 0 0 0 0 0 0 0 0 0 0 0 0 0 0 0 0 0 127 0" result="hardAlpha"/>
<feMorphology radius="1" operator="dilate" in="SourceAlpha" result="effect1_dropShadow_281_1277"/>
<feOffset dx="1" dy="2"/>
<feGaussianBlur stdDeviation="2.5"/>
<feComposite in2="hardAlpha" operator="out"/>
<feColorMatrix type="matrix" values="0 0 0 0 0 0 0 0 0 0 0 0 0 0 0 0 0 0 0.15 0"/>
<feBlend mode="normal" in2="BackgroundImageFix" result="effect1_dropShadow_281_1277"/>
<feBlend mode="normal" in="SourceGraphic" in2="effect1_dropShadow_281_1277" result="shape"/>
</filter>
</defs>
</svg>
