<svg width="268" height="180" viewBox="0 0 268 180" fill="none" xmlns="http://www.w3.org/2000/svg">
<g filter="url(#filter0_d_281_1220)">
<rect x="112.852" y="52.1934" width="148.148" height="98.4552" rx="20" fill="white"/>
</g>
<path d="M132.594 83.8445V84.2898H129.802V83.9001L131.199 82.3445C131.371 82.1531 131.504 81.991 131.598 81.8582C131.693 81.7234 131.76 81.6033 131.797 81.4978C131.836 81.3904 131.855 81.281 131.855 81.1697C131.855 81.0291 131.826 80.9021 131.768 80.7888C131.711 80.6736 131.627 80.5818 131.516 80.5134C131.404 80.4451 131.27 80.4109 131.111 80.4109C130.922 80.4109 130.764 80.448 130.637 80.5222C130.512 80.5945 130.418 80.696 130.355 80.8269C130.293 80.9578 130.262 81.1082 130.262 81.2781H129.72C129.72 81.0378 129.772 80.8181 129.878 80.6189C129.983 80.4197 130.14 80.2615 130.347 80.1443C130.554 80.0251 130.809 79.9656 131.111 79.9656C131.381 79.9656 131.611 80.0134 131.803 80.1091C131.994 80.2029 132.141 80.3357 132.242 80.5076C132.346 80.6775 132.397 80.8767 132.397 81.1052C132.397 81.2302 132.376 81.3572 132.333 81.4861C132.292 81.613 132.234 81.74 132.16 81.8669C132.088 81.9939 132.003 82.1189 131.905 82.2419C131.81 82.365 131.707 82.4861 131.598 82.6052L130.455 83.8445H132.594ZM135.852 81.8171V82.4675C135.852 82.8171 135.82 83.1121 135.758 83.3523C135.695 83.5925 135.605 83.7859 135.488 83.9324C135.371 84.0789 135.229 84.1853 135.063 84.2517C134.899 84.3162 134.714 84.3484 134.507 84.3484C134.343 84.3484 134.191 84.3279 134.053 84.2869C133.914 84.2458 133.789 84.1804 133.678 84.0906C133.568 83.9988 133.475 83.8796 133.396 83.7332C133.318 83.5867 133.259 83.4089 133.218 83.2C133.177 82.991 133.156 82.7468 133.156 82.4675V81.8171C133.156 81.4675 133.188 81.1746 133.25 80.9382C133.314 80.7019 133.405 80.5125 133.522 80.3699C133.64 80.2253 133.78 80.1218 133.944 80.0593C134.11 79.9968 134.296 79.9656 134.501 79.9656C134.667 79.9656 134.819 79.9861 134.958 80.0271C135.099 80.0662 135.224 80.1296 135.333 80.2175C135.442 80.3035 135.535 80.4187 135.611 80.5632C135.689 80.7058 135.749 80.8806 135.79 81.0876C135.831 81.2947 135.852 81.5378 135.852 81.8171ZM135.307 82.5554V81.7263C135.307 81.5349 135.295 81.3669 135.271 81.2224C135.25 81.0759 135.218 80.9509 135.175 80.8474C135.132 80.7439 135.077 80.6599 135.011 80.5955C134.946 80.531 134.871 80.4841 134.785 80.4548C134.701 80.4236 134.606 80.408 134.501 80.408C134.372 80.408 134.258 80.4324 134.158 80.4812C134.059 80.5281 133.975 80.6033 133.906 80.7068C133.84 80.8103 133.789 80.946 133.754 81.114C133.719 81.282 133.701 81.4861 133.701 81.7263V82.5554C133.701 82.7468 133.712 82.9158 133.733 83.0623C133.757 83.2087 133.791 83.3357 133.836 83.4431C133.881 83.5486 133.936 83.6355 134 83.7039C134.064 83.7722 134.139 83.823 134.223 83.8562C134.309 83.8875 134.403 83.9031 134.507 83.9031C134.64 83.9031 134.756 83.8777 134.855 83.8269C134.955 83.7761 135.038 83.697 135.104 83.5896C135.173 83.4802 135.224 83.3406 135.257 83.1707C135.29 82.9988 135.307 82.7937 135.307 82.5554ZM139.227 81.8171V82.4675C139.227 82.8171 139.195 83.1121 139.133 83.3523C139.07 83.5925 138.98 83.7859 138.863 83.9324C138.746 84.0789 138.604 84.1853 138.438 84.2517C138.274 84.3162 138.089 84.3484 137.882 84.3484C137.718 84.3484 137.566 84.3279 137.428 84.2869C137.289 84.2458 137.164 84.1804 137.053 84.0906C136.943 83.9988 136.85 83.8796 136.771 83.7332C136.693 83.5867 136.634 83.4089 136.593 83.2C136.552 82.991 136.531 82.7468 136.531 82.4675V81.8171C136.531 81.4675 136.562 81.1746 136.625 80.9382C136.689 80.7019 136.78 80.5125 136.897 80.3699C137.015 80.2253 137.155 80.1218 137.319 80.0593C137.485 79.9968 137.671 79.9656 137.876 79.9656C138.042 79.9656 138.194 79.9861 138.333 80.0271C138.474 80.0662 138.599 80.1296 138.708 80.2175C138.817 80.3035 138.91 80.4187 138.986 80.5632C139.064 80.7058 139.124 80.8806 139.165 81.0876C139.206 81.2947 139.227 81.5378 139.227 81.8171ZM138.682 82.5554V81.7263C138.682 81.5349 138.67 81.3669 138.646 81.2224C138.625 81.0759 138.593 80.9509 138.55 80.8474C138.507 80.7439 138.452 80.6599 138.386 80.5955C138.321 80.531 138.246 80.4841 138.16 80.4548C138.076 80.4236 137.981 80.408 137.876 80.408C137.747 80.408 137.633 80.4324 137.533 80.4812C137.434 80.5281 137.35 80.6033 137.281 80.7068C137.215 80.8103 137.164 80.946 137.129 81.114C137.094 81.282 137.076 81.4861 137.076 81.7263V82.5554C137.076 82.7468 137.087 82.9158 137.108 83.0623C137.132 83.2087 137.166 83.3357 137.211 83.4431C137.256 83.5486 137.311 83.6355 137.375 83.7039C137.439 83.7722 137.514 83.823 137.598 83.8562C137.684 83.8875 137.778 83.9031 137.882 83.9031C138.015 83.9031 138.131 83.8777 138.23 83.8269C138.33 83.7761 138.413 83.697 138.479 83.5896C138.548 83.4802 138.599 83.3406 138.632 83.1707C138.665 82.9988 138.682 82.7937 138.682 82.5554Z" fill="black"/>
<path d="M130.395 95.4216V99.7107H129.853V96.0984L128.76 96.4968V96.0076L130.31 95.4216H130.395ZM134.667 97.238V97.8884C134.667 98.238 134.635 98.533 134.573 98.7732C134.51 99.0134 134.42 99.2068 134.303 99.3533C134.186 99.4998 134.044 99.6062 133.878 99.6726C133.714 99.7371 133.529 99.7693 133.322 99.7693C133.158 99.7693 133.006 99.7488 132.868 99.7078C132.729 99.6667 132.604 99.6013 132.493 99.5115C132.383 99.4197 132.29 99.3005 132.211 99.1541C132.133 99.0076 132.074 98.8298 132.033 98.6208C131.992 98.4119 131.971 98.1677 131.971 97.8884V97.238C131.971 96.8884 132.002 96.5955 132.065 96.3591C132.129 96.1228 132.22 95.9333 132.337 95.7908C132.455 95.6462 132.595 95.5427 132.759 95.4802C132.925 95.4177 133.111 95.3865 133.316 95.3865C133.482 95.3865 133.634 95.407 133.773 95.448C133.914 95.4871 134.039 95.5505 134.148 95.6384C134.257 95.7244 134.35 95.8396 134.426 95.9841C134.504 96.1267 134.564 96.3015 134.605 96.5085C134.646 96.7156 134.667 96.9587 134.667 97.238ZM134.122 97.9763V97.1472C134.122 96.9558 134.11 96.7878 134.086 96.6433C134.065 96.4968 134.033 96.3718 133.99 96.2683C133.947 96.1648 133.892 96.0808 133.826 96.0164C133.761 95.9519 133.686 95.905 133.6 95.8757C133.516 95.8445 133.421 95.8289 133.316 95.8289C133.187 95.8289 133.073 95.8533 132.973 95.9021C132.874 95.949 132.79 96.0242 132.721 96.1277C132.655 96.2312 132.604 96.3669 132.569 96.5349C132.534 96.7029 132.516 96.907 132.516 97.1472V97.9763C132.516 98.1677 132.527 98.3367 132.548 98.4832C132.572 98.6296 132.606 98.7566 132.651 98.864C132.696 98.9695 132.75 99.0564 132.815 99.1248C132.879 99.1931 132.954 99.2439 133.038 99.2771C133.124 99.3083 133.218 99.324 133.322 99.324C133.455 99.324 133.571 99.2986 133.67 99.2478C133.77 99.197 133.853 99.1179 133.919 99.0105C133.988 98.9011 134.039 98.7615 134.072 98.5916C134.105 98.4197 134.122 98.2146 134.122 97.9763ZM138.042 97.238V97.8884C138.042 98.238 138.01 98.533 137.948 98.7732C137.885 99.0134 137.795 99.2068 137.678 99.3533C137.561 99.4998 137.419 99.6062 137.253 99.6726C137.089 99.7371 136.904 99.7693 136.697 99.7693C136.533 99.7693 136.381 99.7488 136.243 99.7078C136.104 99.6667 135.979 99.6013 135.868 99.5115C135.758 99.4197 135.665 99.3005 135.586 99.1541C135.508 99.0076 135.449 98.8298 135.408 98.6208C135.367 98.4119 135.346 98.1677 135.346 97.8884V97.238C135.346 96.8884 135.377 96.5955 135.44 96.3591C135.504 96.1228 135.595 95.9333 135.712 95.7908C135.83 95.6462 135.97 95.5427 136.134 95.4802C136.3 95.4177 136.486 95.3865 136.691 95.3865C136.857 95.3865 137.009 95.407 137.148 95.448C137.289 95.4871 137.414 95.5505 137.523 95.6384C137.632 95.7244 137.725 95.8396 137.801 95.9841C137.879 96.1267 137.939 96.3015 137.98 96.5085C138.021 96.7156 138.042 96.9587 138.042 97.238ZM137.497 97.9763V97.1472C137.497 96.9558 137.485 96.7878 137.461 96.6433C137.44 96.4968 137.408 96.3718 137.365 96.2683C137.322 96.1648 137.267 96.0808 137.201 96.0164C137.136 95.9519 137.061 95.905 136.975 95.8757C136.891 95.8445 136.796 95.8289 136.691 95.8289C136.562 95.8289 136.448 95.8533 136.348 95.9021C136.249 95.949 136.165 96.0242 136.096 96.1277C136.03 96.2312 135.979 96.3669 135.944 96.5349C135.909 96.7029 135.891 96.907 135.891 97.1472V97.9763C135.891 98.1677 135.902 98.3367 135.923 98.4832C135.947 98.6296 135.981 98.7566 136.026 98.864C136.071 98.9695 136.125 99.0564 136.19 99.1248C136.254 99.1931 136.329 99.2439 136.413 99.2771C136.499 99.3083 136.593 99.324 136.697 99.324C136.83 99.324 136.946 99.2986 137.045 99.2478C137.145 99.197 137.228 99.1179 137.294 99.0105C137.363 98.9011 137.414 98.7615 137.447 98.5916C137.48 98.4197 137.497 98.2146 137.497 97.9763Z" fill="black"/>
<path d="M135.225 111.915L134.792 111.803L135.005 109.679H137.194V110.18H135.465L135.336 111.341C135.415 111.296 135.513 111.254 135.632 111.215C135.753 111.176 135.892 111.156 136.048 111.156C136.246 111.156 136.422 111.19 136.579 111.259C136.735 111.325 136.868 111.421 136.977 111.546C137.088 111.671 137.173 111.821 137.232 111.997C137.291 112.173 137.32 112.369 137.32 112.586C137.32 112.791 137.292 112.979 137.235 113.151C137.18 113.323 137.097 113.473 136.986 113.602C136.875 113.729 136.734 113.828 136.564 113.898C136.396 113.969 136.198 114.004 135.969 114.004C135.797 114.004 135.634 113.98 135.48 113.933C135.328 113.885 135.191 113.811 135.07 113.714C134.951 113.614 134.853 113.491 134.777 113.344C134.703 113.196 134.656 113.022 134.636 112.823H135.152C135.175 112.983 135.222 113.118 135.292 113.227C135.363 113.337 135.455 113.42 135.568 113.476C135.683 113.531 135.817 113.558 135.969 113.558C136.098 113.558 136.212 113.536 136.312 113.491C136.412 113.446 136.496 113.382 136.564 113.298C136.632 113.214 136.684 113.112 136.719 112.993C136.756 112.874 136.775 112.74 136.775 112.592C136.775 112.457 136.756 112.332 136.719 112.217C136.682 112.101 136.626 112.001 136.552 111.915C136.48 111.829 136.391 111.762 136.286 111.716C136.18 111.667 136.059 111.642 135.922 111.642C135.741 111.642 135.603 111.667 135.509 111.716C135.417 111.764 135.323 111.831 135.225 111.915ZM140.592 111.472V112.123C140.592 112.472 140.561 112.767 140.499 113.008C140.436 113.248 140.346 113.441 140.229 113.588C140.112 113.734 139.97 113.841 139.804 113.907C139.64 113.971 139.455 114.004 139.248 114.004C139.083 114.004 138.932 113.983 138.793 113.942C138.655 113.901 138.53 113.836 138.418 113.746C138.309 113.654 138.215 113.535 138.137 113.388C138.059 113.242 138 113.064 137.958 112.855C137.917 112.646 137.897 112.402 137.897 112.123V111.472C137.897 111.123 137.928 110.83 137.991 110.594C138.055 110.357 138.146 110.168 138.263 110.025C138.38 109.881 138.521 109.777 138.685 109.715C138.851 109.652 139.037 109.621 139.242 109.621C139.408 109.621 139.56 109.641 139.699 109.682C139.839 109.721 139.964 109.785 140.074 109.873C140.183 109.959 140.276 110.074 140.352 110.219C140.43 110.361 140.49 110.536 140.531 110.743C140.572 110.95 140.592 111.193 140.592 111.472ZM140.047 112.211V111.382C140.047 111.19 140.036 111.022 140.012 110.878C139.991 110.731 139.958 110.606 139.916 110.503C139.873 110.399 139.818 110.315 139.751 110.251C139.687 110.186 139.612 110.139 139.526 110.11C139.442 110.079 139.347 110.063 139.242 110.063C139.113 110.063 138.999 110.088 138.899 110.136C138.799 110.183 138.715 110.259 138.647 110.362C138.581 110.466 138.53 110.601 138.495 110.769C138.459 110.937 138.442 111.141 138.442 111.382V112.211C138.442 112.402 138.453 112.571 138.474 112.718C138.498 112.864 138.532 112.991 138.577 113.098C138.622 113.204 138.676 113.291 138.741 113.359C138.805 113.427 138.879 113.478 138.963 113.511C139.049 113.543 139.144 113.558 139.248 113.558C139.38 113.558 139.497 113.533 139.596 113.482C139.696 113.431 139.779 113.352 139.845 113.245C139.914 113.135 139.964 112.996 139.998 112.826C140.031 112.654 140.047 112.449 140.047 112.211Z" fill="black"/>
<path d="M140.954 126.893V127.543C140.954 127.893 140.922 128.188 140.86 128.428C140.797 128.668 140.708 128.862 140.59 129.008C140.473 129.155 140.332 129.261 140.166 129.328C140.001 129.392 139.816 129.424 139.609 129.424C139.445 129.424 139.293 129.404 139.155 129.363C139.016 129.322 138.891 129.256 138.78 129.167C138.67 129.075 138.577 128.956 138.499 128.809C138.42 128.663 138.361 128.485 138.32 128.276C138.279 128.067 138.258 127.823 138.258 127.543V126.893C138.258 126.543 138.29 126.25 138.352 126.014C138.417 125.778 138.507 125.588 138.625 125.446C138.742 125.301 138.882 125.198 139.046 125.135C139.212 125.073 139.398 125.042 139.603 125.042C139.769 125.042 139.921 125.062 140.06 125.103C140.201 125.142 140.326 125.206 140.435 125.293C140.544 125.379 140.637 125.495 140.713 125.639C140.792 125.782 140.851 125.957 140.892 126.164C140.933 126.371 140.954 126.614 140.954 126.893ZM140.409 127.631V126.802C140.409 126.611 140.397 126.443 140.374 126.298C140.352 126.152 140.32 126.027 140.277 125.923C140.234 125.82 140.179 125.736 140.113 125.671C140.048 125.607 139.973 125.56 139.887 125.531C139.803 125.5 139.709 125.484 139.603 125.484C139.474 125.484 139.36 125.508 139.26 125.557C139.161 125.604 139.077 125.679 139.008 125.783C138.942 125.886 138.891 126.022 138.856 126.19C138.821 126.358 138.803 126.562 138.803 126.802V127.631C138.803 127.823 138.814 127.992 138.835 128.138C138.859 128.285 138.893 128.412 138.938 128.519C138.983 128.625 139.038 128.711 139.102 128.78C139.167 128.848 139.241 128.899 139.325 128.932C139.411 128.963 139.505 128.979 139.609 128.979C139.742 128.979 139.858 128.954 139.958 128.903C140.057 128.852 140.14 128.773 140.207 128.666C140.275 128.556 140.326 128.417 140.359 128.247C140.392 128.075 140.409 127.87 140.409 127.631Z" fill="black"/>
<path d="M166.312 135.752V140.042H165.77V136.429L164.677 136.828V136.338L166.227 135.752H166.312ZM168.591 138.011L168.157 137.9L168.371 135.776H170.56V136.277H168.831L168.702 137.437C168.78 137.392 168.879 137.35 168.998 137.311C169.119 137.272 169.258 137.252 169.414 137.252C169.611 137.252 169.788 137.287 169.944 137.355C170.101 137.421 170.233 137.517 170.343 137.642C170.454 137.767 170.539 137.917 170.598 138.093C170.656 138.269 170.686 138.465 170.686 138.682C170.686 138.887 170.657 139.076 170.601 139.248C170.546 139.419 170.463 139.57 170.352 139.699C170.24 139.826 170.1 139.924 169.93 139.995C169.762 140.065 169.564 140.1 169.335 140.1C169.163 140.1 169 140.077 168.846 140.03C168.693 139.981 168.557 139.908 168.436 139.81C168.316 139.71 168.219 139.587 168.143 139.441C168.068 139.292 168.022 139.119 168.002 138.919H168.518C168.541 139.08 168.588 139.214 168.658 139.324C168.729 139.433 168.82 139.516 168.934 139.573C169.049 139.627 169.183 139.655 169.335 139.655C169.464 139.655 169.578 139.632 169.678 139.587C169.777 139.542 169.861 139.478 169.93 139.394C169.998 139.31 170.05 139.208 170.085 139.089C170.122 138.97 170.141 138.836 170.141 138.688C170.141 138.553 170.122 138.428 170.085 138.313C170.048 138.198 169.992 138.097 169.918 138.011C169.846 137.925 169.757 137.859 169.651 137.812C169.546 137.763 169.425 137.739 169.288 137.739C169.106 137.739 168.969 137.763 168.875 137.812C168.783 137.861 168.689 137.927 168.591 138.011Z" fill="#7E7B7B"/>
<path d="M180.534 135.752V140.042H179.992V136.429L178.899 136.828V136.338L180.449 135.752H180.534ZM184.208 135.77H184.255V136.23H184.208C183.921 136.23 183.68 136.277 183.487 136.371C183.294 136.462 183.14 136.586 183.027 136.743C182.914 136.897 182.832 137.071 182.781 137.264C182.732 137.458 182.708 137.654 182.708 137.853V138.48C182.708 138.669 182.73 138.837 182.775 138.984C182.82 139.128 182.882 139.25 182.96 139.35C183.038 139.45 183.126 139.525 183.223 139.576C183.323 139.626 183.427 139.652 183.534 139.652C183.659 139.652 183.77 139.628 183.868 139.582C183.966 139.533 184.048 139.465 184.114 139.379C184.182 139.292 184.234 139.188 184.269 139.069C184.304 138.95 184.322 138.819 184.322 138.676C184.322 138.549 184.306 138.427 184.275 138.31C184.244 138.191 184.196 138.085 184.132 137.994C184.067 137.9 183.986 137.827 183.888 137.774C183.793 137.719 183.678 137.692 183.546 137.692C183.395 137.692 183.255 137.729 183.124 137.803C182.995 137.875 182.888 137.971 182.804 138.09C182.722 138.208 182.676 138.335 182.664 138.474L182.377 138.471C182.404 138.252 182.455 138.066 182.529 137.912C182.605 137.755 182.699 137.628 182.81 137.531C182.924 137.431 183.05 137.359 183.188 137.314C183.329 137.267 183.477 137.244 183.634 137.244C183.846 137.244 184.03 137.284 184.184 137.364C184.339 137.444 184.466 137.551 184.565 137.686C184.665 137.819 184.738 137.969 184.785 138.137C184.834 138.303 184.858 138.474 184.858 138.65C184.858 138.851 184.83 139.04 184.773 139.215C184.717 139.391 184.632 139.545 184.518 139.678C184.407 139.811 184.269 139.915 184.105 139.989C183.941 140.063 183.751 140.1 183.534 140.1C183.303 140.1 183.102 140.053 182.93 139.959C182.759 139.864 182.616 139.737 182.503 139.579C182.389 139.42 182.304 139.245 182.248 139.051C182.191 138.858 182.163 138.662 182.163 138.462V138.208C182.163 137.907 182.193 137.612 182.254 137.323C182.314 137.034 182.419 136.772 182.567 136.538C182.718 136.303 182.926 136.117 183.191 135.978C183.457 135.839 183.796 135.77 184.208 135.77Z" fill="#7E7B7B"/>
<path d="M199.497 135.752V140.042H198.955V136.429L197.862 136.828V136.338L199.412 135.752H199.497ZM203.847 135.776V136.081L202.081 140.042H201.51L203.273 136.221H200.965V135.776H203.847Z" fill="#7E7B7B"/>
<path d="M217.275 135.752V140.042H216.733V136.429L215.64 136.828V136.338L217.19 135.752H217.275ZM221.558 138.887C221.558 139.147 221.497 139.368 221.376 139.549C221.257 139.729 221.095 139.866 220.89 139.959C220.687 140.053 220.457 140.1 220.201 140.1C219.946 140.1 219.715 140.053 219.51 139.959C219.305 139.866 219.143 139.729 219.024 139.549C218.905 139.368 218.845 139.147 218.845 138.887C218.845 138.717 218.877 138.562 218.942 138.421C219.008 138.279 219.101 138.155 219.22 138.049C219.341 137.944 219.484 137.863 219.648 137.806C219.814 137.748 219.996 137.718 220.196 137.718C220.457 137.718 220.691 137.769 220.896 137.871C221.101 137.97 221.262 138.108 221.379 138.284C221.498 138.459 221.558 138.661 221.558 138.887ZM221.013 138.875C221.013 138.717 220.979 138.578 220.91 138.457C220.842 138.333 220.746 138.238 220.623 138.169C220.5 138.101 220.358 138.067 220.196 138.067C220.03 138.067 219.886 138.101 219.765 138.169C219.646 138.238 219.553 138.333 219.487 138.457C219.42 138.578 219.387 138.717 219.387 138.875C219.387 139.04 219.419 139.18 219.484 139.297C219.55 139.413 219.644 139.501 219.765 139.564C219.888 139.625 220.033 139.655 220.201 139.655C220.369 139.655 220.514 139.625 220.635 139.564C220.756 139.501 220.849 139.413 220.913 139.297C220.98 139.18 221.013 139.04 221.013 138.875ZM221.458 136.886C221.458 137.093 221.404 137.28 221.294 137.446C221.185 137.612 221.035 137.743 220.846 137.838C220.657 137.934 220.442 137.982 220.201 137.982C219.957 137.982 219.74 137.934 219.548 137.838C219.359 137.743 219.21 137.612 219.103 137.446C218.995 137.28 218.942 137.093 218.942 136.886C218.942 136.638 218.995 136.427 219.103 136.253C219.212 136.08 219.362 135.947 219.551 135.855C219.741 135.763 219.956 135.717 220.199 135.717C220.443 135.717 220.659 135.763 220.849 135.855C221.038 135.947 221.187 136.08 221.294 136.253C221.404 136.427 221.458 136.638 221.458 136.886ZM220.916 136.895C220.916 136.752 220.886 136.626 220.825 136.517C220.765 136.408 220.681 136.322 220.574 136.259C220.466 136.195 220.341 136.163 220.199 136.163C220.056 136.163 219.931 136.193 219.824 136.253C219.718 136.312 219.635 136.396 219.574 136.505C219.516 136.615 219.487 136.745 219.487 136.895C219.487 137.042 219.516 137.169 219.574 137.279C219.635 137.388 219.719 137.473 219.826 137.534C219.934 137.594 220.059 137.625 220.201 137.625C220.344 137.625 220.468 137.594 220.574 137.534C220.681 137.473 220.765 137.388 220.825 137.279C220.886 137.169 220.916 137.042 220.916 136.895Z" fill="#7E7B7B"/>
<path d="M147.222 129.445L160.145 125.233L173.515 106.338L186.56 113.418L199.932 94.147L213.426 86.5442L225.701 99.7914L236.137 78.1378L242.065 74.731" stroke="#002E95" stroke-width="2" stroke-linecap="round" stroke-linejoin="round"/>
<g filter="url(#filter1_dd_281_1220)">
<rect width="5.1504" height="5.25288" rx="2.5752" transform="matrix(0.999985 -0.00550224 -0.00538103 0.999985 210.742 84.4451)" fill="#002E95"/>
<rect x="0.994604" y="0.994483" width="3.1504" height="3.25288" rx="1.5752" transform="matrix(0.999985 -0.00550224 -0.00538103 0.999985 210.748 84.4506)" stroke="#002E95" stroke-width="2"/>
</g>
<g filter="url(#filter2_dd_281_1220)">
<rect width="5.1504" height="5.25288" rx="2.5752" transform="matrix(0.999985 -0.00550225 -0.00538102 0.999985 233.599 75.689)" fill="#002E95"/>
<rect x="0.994604" y="0.994483" width="3.1504" height="3.25288" rx="1.5752" transform="matrix(0.999985 -0.00550225 -0.00538102 0.999985 233.604 75.6945)" stroke="#002E95" stroke-width="2"/>
</g>
<g filter="url(#filter3_dd_281_1220)">
<rect width="5.15042" height="5.2529" rx="2.57521" transform="matrix(0.999985 -0.00550225 -0.00538103 0.999985 222.814 97.1357)" fill="#002E95"/>
<rect x="0.994604" y="0.994483" width="3.15042" height="3.2529" rx="1.57521" transform="matrix(0.999985 -0.00550225 -0.00538103 0.999985 222.82 97.1412)" stroke="#002E95" stroke-width="2"/>
</g>
<g filter="url(#filter4_dd_281_1220)">
<rect width="5.1504" height="5.25288" rx="2.5752" transform="matrix(0.999985 -0.00550225 -0.00538103 0.999985 198.199 90.8928)" fill="#002E95"/>
<rect x="0.994604" y="0.994483" width="3.1504" height="3.25288" rx="1.5752" transform="matrix(0.999985 -0.00550225 -0.00538103 0.999985 198.205 90.8983)" stroke="#002E95" stroke-width="2"/>
</g>
<g filter="url(#filter5_dd_281_1220)">
<rect width="5.1504" height="5.25289" rx="2.5752" transform="matrix(0.999985 -0.00550224 -0.00538104 0.999985 183.746 110.483)" fill="#002E95"/>
<rect x="0.994604" y="0.994483" width="3.1504" height="3.25289" rx="1.5752" transform="matrix(0.999985 -0.00550224 -0.00538104 0.999985 183.751 110.488)" stroke="#002E95" stroke-width="2"/>
</g>
<g filter="url(#filter6_dd_281_1220)">
<rect width="5.1504" height="5.2529" rx="2.5752" transform="matrix(0.999985 -0.00550226 -0.00538102 0.999985 171.273 103.798)" fill="#002E95"/>
<rect x="0.994604" y="0.994483" width="3.1504" height="3.2529" rx="1.5752" transform="matrix(0.999985 -0.00550226 -0.00538102 0.999985 171.279 103.803)" stroke="#002E95" stroke-width="2"/>
</g>
<g filter="url(#filter7_dd_281_1220)">
<rect width="5.15042" height="5.2529" rx="2.57521" transform="matrix(0.999985 -0.00550225 -0.00538103 0.999985 157.562 122.259)" fill="#002E95"/>
<rect x="0.994604" y="0.994483" width="3.15042" height="3.2529" rx="1.57521" transform="matrix(0.999985 -0.00550225 -0.00538103 0.999985 157.567 122.264)" stroke="#002E95" stroke-width="2"/>
</g>
<g filter="url(#filter8_d_281_1220)">
<rect x="5" y="21.3521" width="148.148" height="150.648" rx="20" fill="white"/>
</g>
<line x1="54.2222" y1="55.1934" x2="54.2222" y2="139.345" stroke="#00329A" stroke-width="6" stroke-linecap="round"/>
<line x1="104" y1="101.455" x2="104" y2="139.345" stroke="#00329A" stroke-width="6" stroke-linecap="round"/>
<line x1="70.8147" y1="69.4277" x2="70.8147" y2="139.345" stroke="#00329A" stroke-width="6" stroke-linecap="round"/>
<line x1="120.593" y1="77.7312" x2="120.593" y2="139.345" stroke="#00329A" stroke-width="6" stroke-linecap="round"/>
<line x1="87.4075" y1="127.552" x2="87.4075" y2="139.345" stroke="#00329A" stroke-width="6" stroke-linecap="round"/>
<path d="M18.9875 40.6699V44.959H18.4456V41.3467L17.3528 41.7451V41.2559L18.9026 40.6699H18.9875ZM23.259 42.4863V43.1367C23.259 43.4863 23.2278 43.7812 23.1653 44.0215C23.1028 44.2617 23.0129 44.4551 22.8958 44.6016C22.7786 44.748 22.637 44.8545 22.4709 44.9209C22.3069 44.9854 22.1213 45.0176 21.9143 45.0176C21.7502 45.0176 21.5989 44.9971 21.4602 44.9561C21.3215 44.915 21.1965 44.8496 21.0852 44.7598C20.9758 44.668 20.8821 44.5488 20.804 44.4023C20.7258 44.2559 20.6663 44.0781 20.6252 43.8691C20.5842 43.6602 20.5637 43.416 20.5637 43.1367V42.4863C20.5637 42.1367 20.595 41.8438 20.6575 41.6074C20.7219 41.3711 20.8127 41.1816 20.9299 41.0391C21.0471 40.8945 21.1877 40.791 21.3518 40.7285C21.5178 40.666 21.7034 40.6348 21.9084 40.6348C22.0745 40.6348 22.2268 40.6553 22.3655 40.6963C22.5061 40.7354 22.6311 40.7988 22.7405 40.8867C22.8499 40.9727 22.9426 41.0879 23.0188 41.2324C23.0969 41.375 23.1565 41.5498 23.1975 41.7568C23.2385 41.9639 23.259 42.207 23.259 42.4863ZM22.7141 43.2246V42.3955C22.7141 42.2041 22.7024 42.0361 22.679 41.8916C22.6575 41.7451 22.6252 41.6201 22.5823 41.5166C22.5393 41.4131 22.4846 41.3291 22.4182 41.2646C22.3538 41.2002 22.2786 41.1533 22.1926 41.124C22.1086 41.0928 22.0139 41.0771 21.9084 41.0771C21.7795 41.0771 21.6653 41.1016 21.5657 41.1504C21.4661 41.1973 21.3821 41.2725 21.3137 41.376C21.2473 41.4795 21.1965 41.6152 21.1614 41.7832C21.1262 41.9512 21.1086 42.1553 21.1086 42.3955V43.2246C21.1086 43.416 21.1194 43.585 21.1409 43.7314C21.1643 43.8779 21.1985 44.0049 21.2434 44.1123C21.2883 44.2178 21.343 44.3047 21.4075 44.373C21.4719 44.4414 21.5461 44.4922 21.6301 44.5254C21.7161 44.5566 21.8108 44.5723 21.9143 44.5723C22.0471 44.5723 22.1633 44.5469 22.2629 44.4961C22.3625 44.4453 22.4456 44.3662 22.512 44.2588C22.5803 44.1494 22.6311 44.0098 22.6643 43.8398C22.6975 43.668 22.7141 43.4629 22.7141 43.2246ZM26.634 42.4863V43.1367C26.634 43.4863 26.6028 43.7812 26.5403 44.0215C26.4778 44.2617 26.3879 44.4551 26.2708 44.6016C26.1536 44.748 26.012 44.8545 25.8459 44.9209C25.6819 44.9854 25.4963 45.0176 25.2893 45.0176C25.1252 45.0176 24.9739 44.9971 24.8352 44.9561C24.6965 44.915 24.5715 44.8496 24.4602 44.7598C24.3508 44.668 24.2571 44.5488 24.179 44.4023C24.1008 44.2559 24.0413 44.0781 24.0002 43.8691C23.9592 43.6602 23.9387 43.416 23.9387 43.1367V42.4863C23.9387 42.1367 23.97 41.8438 24.0325 41.6074C24.0969 41.3711 24.1877 41.1816 24.3049 41.0391C24.4221 40.8945 24.5627 40.791 24.7268 40.7285C24.8928 40.666 25.0784 40.6348 25.2834 40.6348C25.4495 40.6348 25.6018 40.6553 25.7405 40.6963C25.8811 40.7354 26.0061 40.7988 26.1155 40.8867C26.2249 40.9727 26.3176 41.0879 26.3938 41.2324C26.4719 41.375 26.5315 41.5498 26.5725 41.7568C26.6135 41.9639 26.634 42.207 26.634 42.4863ZM26.0891 43.2246V42.3955C26.0891 42.2041 26.0774 42.0361 26.054 41.8916C26.0325 41.7451 26.0002 41.6201 25.9573 41.5166C25.9143 41.4131 25.8596 41.3291 25.7932 41.2646C25.7288 41.2002 25.6536 41.1533 25.5676 41.124C25.4836 41.0928 25.3889 41.0771 25.2834 41.0771C25.1545 41.0771 25.0403 41.1016 24.9407 41.1504C24.8411 41.1973 24.7571 41.2725 24.6887 41.376C24.6223 41.4795 24.5715 41.6152 24.5364 41.7832C24.5012 41.9512 24.4836 42.1553 24.4836 42.3955V43.2246C24.4836 43.416 24.4944 43.585 24.5159 43.7314C24.5393 43.8779 24.5735 44.0049 24.6184 44.1123C24.6633 44.2178 24.718 44.3047 24.7825 44.373C24.8469 44.4414 24.9211 44.4922 25.0051 44.5254C25.0911 44.5566 25.1858 44.5723 25.2893 44.5723C25.4221 44.5723 25.5383 44.5469 25.6379 44.4961C25.7375 44.4453 25.8206 44.3662 25.887 44.2588C25.9553 44.1494 26.0061 44.0098 26.0393 43.8398C26.0725 43.668 26.0891 43.4629 26.0891 43.2246ZM30.009 42.4863V43.1367C30.009 43.4863 29.9778 43.7812 29.9153 44.0215C29.8528 44.2617 29.7629 44.4551 29.6458 44.6016C29.5286 44.748 29.387 44.8545 29.2209 44.9209C29.0569 44.9854 28.8713 45.0176 28.6643 45.0176C28.5002 45.0176 28.3489 44.9971 28.2102 44.9561C28.0715 44.915 27.9465 44.8496 27.8352 44.7598C27.7258 44.668 27.6321 44.5488 27.554 44.4023C27.4758 44.2559 27.4163 44.0781 27.3752 43.8691C27.3342 43.6602 27.3137 43.416 27.3137 43.1367V42.4863C27.3137 42.1367 27.345 41.8438 27.4075 41.6074C27.4719 41.3711 27.5627 41.1816 27.6799 41.0391C27.7971 40.8945 27.9377 40.791 28.1018 40.7285C28.2678 40.666 28.4534 40.6348 28.6584 40.6348C28.8245 40.6348 28.9768 40.6553 29.1155 40.6963C29.2561 40.7354 29.3811 40.7988 29.4905 40.8867C29.5999 40.9727 29.6926 41.0879 29.7688 41.2324C29.8469 41.375 29.9065 41.5498 29.9475 41.7568C29.9885 41.9639 30.009 42.207 30.009 42.4863ZM29.4641 43.2246V42.3955C29.4641 42.2041 29.4524 42.0361 29.429 41.8916C29.4075 41.7451 29.3752 41.6201 29.3323 41.5166C29.2893 41.4131 29.2346 41.3291 29.1682 41.2646C29.1038 41.2002 29.0286 41.1533 28.9426 41.124C28.8586 41.0928 28.7639 41.0771 28.6584 41.0771C28.5295 41.0771 28.4153 41.1016 28.3157 41.1504C28.2161 41.1973 28.1321 41.2725 28.0637 41.376C27.9973 41.4795 27.9465 41.6152 27.9114 41.7832C27.8762 41.9512 27.8586 42.1553 27.8586 42.3955V43.2246C27.8586 43.416 27.8694 43.585 27.8909 43.7314C27.9143 43.8779 27.9485 44.0049 27.9934 44.1123C28.0383 44.2178 28.093 44.3047 28.1575 44.373C28.2219 44.4414 28.2961 44.4922 28.3801 44.5254C28.4661 44.5566 28.5608 44.5723 28.6643 44.5723C28.7971 44.5723 28.9133 44.5469 29.0129 44.4961C29.1125 44.4453 29.1956 44.3662 29.262 44.2588C29.3303 44.1494 29.3811 44.0098 29.4143 43.8398C29.4475 43.668 29.4641 43.4629 29.4641 43.2246Z" fill="#7E7B7B"/>
<path d="M22.6326 61.908L22.199 61.7966L22.4128 59.6726H24.6013V60.1736H22.8728L22.7439 61.3337C22.822 61.2888 22.9207 61.2468 23.0398 61.2078C23.1609 61.1687 23.2996 61.1492 23.4558 61.1492C23.6531 61.1492 23.8298 61.1833 23.9861 61.2517C24.1423 61.3181 24.2751 61.4138 24.3845 61.5388C24.4958 61.6638 24.5808 61.8142 24.6394 61.99C24.698 62.1658 24.7273 62.3621 24.7273 62.5789C24.7273 62.7839 24.699 62.9724 24.6423 63.1443C24.5876 63.3162 24.5046 63.4666 24.3933 63.5955C24.282 63.7224 24.1414 63.821 23.9714 63.8914C23.8035 63.9617 23.6052 63.9968 23.3767 63.9968C23.2048 63.9968 23.0417 63.9734 22.8875 63.9265C22.7351 63.8777 22.5984 63.8044 22.4773 63.7068C22.3582 63.6072 22.2605 63.4841 22.1843 63.3376C22.1101 63.1892 22.0632 63.0154 22.0437 62.8162H22.5593C22.5828 62.9763 22.6296 63.1111 22.7 63.2205C22.7703 63.3298 22.8621 63.4128 22.9753 63.4695C23.0906 63.5242 23.2244 63.5515 23.3767 63.5515C23.5056 63.5515 23.6199 63.5291 23.7195 63.4841C23.8191 63.4392 23.9031 63.3748 23.9714 63.2908C24.0398 63.2068 24.0916 63.1052 24.1267 62.9861C24.1638 62.8669 24.1824 62.7332 24.1824 62.5847C24.1824 62.45 24.1638 62.325 24.1267 62.2097C24.0896 62.0945 24.0339 61.9939 23.9597 61.908C23.8875 61.822 23.7986 61.7556 23.6931 61.7087C23.5876 61.6599 23.4666 61.6355 23.3298 61.6355C23.1482 61.6355 23.0105 61.6599 22.9167 61.7087C22.825 61.7576 22.7302 61.824 22.6326 61.908ZM27.9998 61.4656V62.116C27.9998 62.4656 27.9685 62.7605 27.906 63.0007C27.8435 63.241 27.7537 63.4343 27.6365 63.5808C27.5193 63.7273 27.3777 63.8337 27.2117 63.9001C27.0476 63.9646 26.8621 63.9968 26.655 63.9968C26.491 63.9968 26.3396 63.9763 26.2009 63.9353C26.0623 63.8943 25.9373 63.8289 25.8259 63.739C25.7166 63.6472 25.6228 63.5281 25.5447 63.3816C25.4666 63.2351 25.407 63.0574 25.366 62.8484C25.325 62.6394 25.3044 62.3953 25.3044 62.116V61.4656C25.3044 61.116 25.3357 60.823 25.3982 60.5867C25.4626 60.3503 25.5535 60.1609 25.6707 60.0183C25.7878 59.8738 25.9285 59.7703 26.0925 59.7078C26.2585 59.6453 26.4441 59.614 26.6492 59.614C26.8152 59.614 26.9675 59.6345 27.1062 59.6755C27.2468 59.7146 27.3718 59.7781 27.4812 59.866C27.5906 59.9519 27.6833 60.0671 27.7595 60.2117C27.8376 60.3542 27.8972 60.5291 27.9382 60.7361C27.9792 60.9431 27.9998 61.1863 27.9998 61.4656ZM27.4548 62.2039V61.3748C27.4548 61.1833 27.4431 61.0154 27.4197 60.8708C27.3982 60.7244 27.366 60.5994 27.323 60.4958C27.28 60.3923 27.2253 60.3083 27.1589 60.2439C27.0945 60.1794 27.0193 60.1326 26.9333 60.1033C26.8494 60.072 26.7546 60.0564 26.6492 60.0564C26.5203 60.0564 26.406 60.0808 26.3064 60.1296C26.2068 60.1765 26.1228 60.2517 26.0544 60.3552C25.988 60.4587 25.9373 60.5945 25.9021 60.7625C25.8669 60.9304 25.8494 61.1345 25.8494 61.3748V62.2039C25.8494 62.3953 25.8601 62.5642 25.8816 62.7107C25.905 62.8572 25.9392 62.9841 25.9841 63.0916C26.0291 63.197 26.0837 63.2839 26.1482 63.3523C26.2126 63.4207 26.2869 63.4714 26.3708 63.5046C26.4568 63.5359 26.5515 63.5515 26.655 63.5515C26.7878 63.5515 26.9041 63.5261 27.0037 63.4753C27.1033 63.4246 27.1863 63.3455 27.2527 63.238C27.321 63.1287 27.3718 62.989 27.405 62.8191C27.4382 62.6472 27.4548 62.4421 27.4548 62.2039ZM31.3748 61.4656V62.116C31.3748 62.4656 31.3435 62.7605 31.281 63.0007C31.2185 63.241 31.1287 63.4343 31.0115 63.5808C30.8943 63.7273 30.7527 63.8337 30.5867 63.9001C30.4226 63.9646 30.2371 63.9968 30.03 63.9968C29.866 63.9968 29.7146 63.9763 29.5759 63.9353C29.4373 63.8943 29.3123 63.8289 29.2009 63.739C29.0916 63.6472 28.9978 63.5281 28.9197 63.3816C28.8416 63.2351 28.782 63.0574 28.741 62.8484C28.7 62.6394 28.6794 62.3953 28.6794 62.116V61.4656C28.6794 61.116 28.7107 60.823 28.7732 60.5867C28.8376 60.3503 28.9285 60.1609 29.0457 60.0183C29.1628 59.8738 29.3035 59.7703 29.4675 59.7078C29.6335 59.6453 29.8191 59.614 30.0242 59.614C30.1902 59.614 30.3425 59.6345 30.4812 59.6755C30.6218 59.7146 30.7468 59.7781 30.8562 59.866C30.9656 59.9519 31.0583 60.0671 31.1345 60.2117C31.2126 60.3542 31.2722 60.5291 31.3132 60.7361C31.3542 60.9431 31.3748 61.1863 31.3748 61.4656ZM30.8298 62.2039V61.3748C30.8298 61.1833 30.8181 61.0154 30.7947 60.8708C30.7732 60.7244 30.741 60.5994 30.698 60.4958C30.655 60.3923 30.6003 60.3083 30.5339 60.2439C30.4695 60.1794 30.3943 60.1326 30.3083 60.1033C30.2244 60.072 30.1296 60.0564 30.0242 60.0564C29.8953 60.0564 29.781 60.0808 29.6814 60.1296C29.5818 60.1765 29.4978 60.2517 29.4294 60.3552C29.363 60.4587 29.3123 60.5945 29.2771 60.7625C29.2419 60.9304 29.2244 61.1345 29.2244 61.3748V62.2039C29.2244 62.3953 29.2351 62.5642 29.2566 62.7107C29.28 62.8572 29.3142 62.9841 29.3591 63.0916C29.4041 63.197 29.4587 63.2839 29.5232 63.3523C29.5876 63.4207 29.6619 63.4714 29.7458 63.5046C29.8318 63.5359 29.9265 63.5515 30.03 63.5515C30.1628 63.5515 30.2791 63.5261 30.3787 63.4753C30.4783 63.4246 30.5613 63.3455 30.6277 63.238C30.696 63.1287 30.7468 62.989 30.78 62.8191C30.8132 62.6472 30.8298 62.4421 30.8298 62.2039Z" fill="#7E7B7B"/>
<path d="M25.9272 82.4722V82.9175H23.1353V82.5278L24.5327 80.9722C24.7046 80.7808 24.8374 80.6187 24.9312 80.4858C25.0269 80.3511 25.0933 80.231 25.1304 80.1255C25.1694 80.0181 25.189 79.9087 25.189 79.7974C25.189 79.6567 25.1597 79.5298 25.1011 79.4165C25.0444 79.3013 24.9604 79.2095 24.8491 79.1411C24.7378 79.0728 24.603 79.0386 24.4448 79.0386C24.2554 79.0386 24.0972 79.0757 23.9702 79.1499C23.8452 79.2222 23.7515 79.3237 23.689 79.4546C23.6265 79.5854 23.5952 79.7358 23.5952 79.9058H23.0532C23.0532 79.6655 23.106 79.4458 23.2114 79.2466C23.3169 79.0474 23.4731 78.8892 23.6802 78.772C23.8872 78.6528 24.1421 78.5933 24.4448 78.5933C24.7144 78.5933 24.9448 78.6411 25.1362 78.7368C25.3276 78.8306 25.4741 78.9634 25.5757 79.1353C25.6792 79.3052 25.731 79.5044 25.731 79.7329C25.731 79.8579 25.7095 79.9849 25.6665 80.1138C25.6255 80.2407 25.5679 80.3677 25.4937 80.4946C25.4214 80.6216 25.3364 80.7466 25.2388 80.8696C25.1431 80.9927 25.0405 81.1138 24.9312 81.2329L23.7886 82.4722H25.9272ZM29.1851 80.4448V81.0952C29.1851 81.4448 29.1538 81.7397 29.0913 81.98C29.0288 82.2202 28.939 82.4136 28.8218 82.5601C28.7046 82.7065 28.563 82.813 28.397 82.8794C28.2329 82.9438 28.0474 82.9761 27.8403 82.9761C27.6763 82.9761 27.5249 82.9556 27.3862 82.9146C27.2476 82.8735 27.1226 82.8081 27.0112 82.7183C26.9019 82.6265 26.8081 82.5073 26.73 82.3608C26.6519 82.2144 26.5923 82.0366 26.5513 81.8276C26.5103 81.6187 26.4897 81.3745 26.4897 81.0952V80.4448C26.4897 80.0952 26.521 79.8022 26.5835 79.5659C26.6479 79.3296 26.7388 79.1401 26.856 78.9976C26.9731 78.853 27.1138 78.7495 27.2778 78.687C27.4438 78.6245 27.6294 78.5933 27.8345 78.5933C28.0005 78.5933 28.1528 78.6138 28.2915 78.6548C28.4321 78.6938 28.5571 78.7573 28.6665 78.8452C28.7759 78.9312 28.8687 79.0464 28.9448 79.1909C29.0229 79.3335 29.0825 79.5083 29.1235 79.7153C29.1646 79.9224 29.1851 80.1655 29.1851 80.4448ZM28.6401 81.1831V80.354C28.6401 80.1626 28.6284 79.9946 28.605 79.8501C28.5835 79.7036 28.5513 79.5786 28.5083 79.4751C28.4653 79.3716 28.4106 79.2876 28.3442 79.2231C28.2798 79.1587 28.2046 79.1118 28.1187 79.0825C28.0347 79.0513 27.9399 79.0356 27.8345 79.0356C27.7056 79.0356 27.5913 79.0601 27.4917 79.1089C27.3921 79.1558 27.3081 79.231 27.2397 79.3345C27.1733 79.438 27.1226 79.5737 27.0874 79.7417C27.0522 79.9097 27.0347 80.1138 27.0347 80.354V81.1831C27.0347 81.3745 27.0454 81.5435 27.0669 81.6899C27.0903 81.8364 27.1245 81.9634 27.1694 82.0708C27.2144 82.1763 27.269 82.2632 27.3335 82.3315C27.3979 82.3999 27.4722 82.4507 27.5562 82.4839C27.6421 82.5151 27.7368 82.5308 27.8403 82.5308C27.9731 82.5308 28.0894 82.5054 28.189 82.4546C28.2886 82.4038 28.3716 82.3247 28.438 82.2173C28.5063 82.1079 28.5571 81.9683 28.5903 81.7983C28.6235 81.6265 28.6401 81.4214 28.6401 81.1831ZM32.5601 80.4448V81.0952C32.5601 81.4448 32.5288 81.7397 32.4663 81.98C32.4038 82.2202 32.314 82.4136 32.1968 82.5601C32.0796 82.7065 31.938 82.813 31.772 82.8794C31.6079 82.9438 31.4224 82.9761 31.2153 82.9761C31.0513 82.9761 30.8999 82.9556 30.7612 82.9146C30.6226 82.8735 30.4976 82.8081 30.3862 82.7183C30.2769 82.6265 30.1831 82.5073 30.105 82.3608C30.0269 82.2144 29.9673 82.0366 29.9263 81.8276C29.8853 81.6187 29.8647 81.3745 29.8647 81.0952V80.4448C29.8647 80.0952 29.896 79.8022 29.9585 79.5659C30.0229 79.3296 30.1138 79.1401 30.231 78.9976C30.3481 78.853 30.4888 78.7495 30.6528 78.687C30.8188 78.6245 31.0044 78.5933 31.2095 78.5933C31.3755 78.5933 31.5278 78.6138 31.6665 78.6548C31.8071 78.6938 31.9321 78.7573 32.0415 78.8452C32.1509 78.9312 32.2437 79.0464 32.3198 79.1909C32.3979 79.3335 32.4575 79.5083 32.4985 79.7153C32.5396 79.9224 32.5601 80.1655 32.5601 80.4448ZM32.0151 81.1831V80.354C32.0151 80.1626 32.0034 79.9946 31.98 79.8501C31.9585 79.7036 31.9263 79.5786 31.8833 79.4751C31.8403 79.3716 31.7856 79.2876 31.7192 79.2231C31.6548 79.1587 31.5796 79.1118 31.4937 79.0825C31.4097 79.0513 31.3149 79.0356 31.2095 79.0356C31.0806 79.0356 30.9663 79.0601 30.8667 79.1089C30.7671 79.1558 30.6831 79.231 30.6147 79.3345C30.5483 79.438 30.4976 79.5737 30.4624 79.7417C30.4272 79.9097 30.4097 80.1138 30.4097 80.354V81.1831C30.4097 81.3745 30.4204 81.5435 30.4419 81.6899C30.4653 81.8364 30.4995 81.9634 30.5444 82.0708C30.5894 82.1763 30.644 82.2632 30.7085 82.3315C30.7729 82.3999 30.8472 82.4507 30.9312 82.4839C31.0171 82.5151 31.1118 82.5308 31.2153 82.5308C31.3481 82.5308 31.4644 82.5054 31.564 82.4546C31.6636 82.4038 31.7466 82.3247 31.813 82.2173C31.8813 82.1079 31.9321 81.9683 31.9653 81.7983C31.9985 81.6265 32.0151 81.4214 32.0151 81.1831Z" fill="#7E7B7B"/>
<path d="M23.7283 97.6077V101.897H23.1863V98.2844L22.0935 98.6829V98.1936L23.6433 97.6077H23.7283ZM27.9998 99.4241V100.074C27.9998 100.424 27.9685 100.719 27.906 100.959C27.8435 101.199 27.7537 101.393 27.6365 101.539C27.5193 101.686 27.3777 101.792 27.2117 101.859C27.0476 101.923 26.8621 101.955 26.655 101.955C26.491 101.955 26.3396 101.935 26.2009 101.894C26.0623 101.853 25.9373 101.787 25.8259 101.698C25.7166 101.606 25.6228 101.487 25.5447 101.34C25.4666 101.194 25.407 101.016 25.366 100.807C25.325 100.598 25.3044 100.354 25.3044 100.074V99.4241C25.3044 99.0745 25.3357 98.7815 25.3982 98.5452C25.4626 98.3088 25.5535 98.1194 25.6707 97.9768C25.7878 97.8323 25.9285 97.7288 26.0925 97.6663C26.2585 97.6038 26.4441 97.5725 26.6492 97.5725C26.8152 97.5725 26.9675 97.593 27.1062 97.634C27.2468 97.6731 27.3718 97.7366 27.4812 97.8245C27.5906 97.9104 27.6833 98.0256 27.7595 98.1702C27.8376 98.3127 27.8972 98.4875 27.9382 98.6946C27.9792 98.9016 27.9998 99.1448 27.9998 99.4241ZM27.4548 100.162V99.3333C27.4548 99.1418 27.4431 98.9739 27.4197 98.8293C27.3982 98.6829 27.366 98.5579 27.323 98.4543C27.28 98.3508 27.2253 98.2668 27.1589 98.2024C27.0945 98.1379 27.0193 98.0911 26.9333 98.0618C26.8494 98.0305 26.7546 98.0149 26.6492 98.0149C26.5203 98.0149 26.406 98.0393 26.3064 98.0881C26.2068 98.135 26.1228 98.2102 26.0544 98.3137C25.988 98.4172 25.9373 98.553 25.9021 98.7209C25.8669 98.8889 25.8494 99.093 25.8494 99.3333V100.162C25.8494 100.354 25.8601 100.523 25.8816 100.669C25.905 100.816 25.9392 100.943 25.9841 101.05C26.0291 101.156 26.0837 101.242 26.1482 101.311C26.2126 101.379 26.2869 101.43 26.3708 101.463C26.4568 101.494 26.5515 101.51 26.655 101.51C26.7878 101.51 26.9041 101.485 27.0037 101.434C27.1033 101.383 27.1863 101.304 27.2527 101.197C27.321 101.087 27.3718 100.948 27.405 100.778C27.4382 100.606 27.4548 100.401 27.4548 100.162ZM31.3748 99.4241V100.074C31.3748 100.424 31.3435 100.719 31.281 100.959C31.2185 101.199 31.1287 101.393 31.0115 101.539C30.8943 101.686 30.7527 101.792 30.5867 101.859C30.4226 101.923 30.2371 101.955 30.03 101.955C29.866 101.955 29.7146 101.935 29.5759 101.894C29.4373 101.853 29.3123 101.787 29.2009 101.698C29.0916 101.606 28.9978 101.487 28.9197 101.34C28.8416 101.194 28.782 101.016 28.741 100.807C28.7 100.598 28.6794 100.354 28.6794 100.074V99.4241C28.6794 99.0745 28.7107 98.7815 28.7732 98.5452C28.8376 98.3088 28.9285 98.1194 29.0457 97.9768C29.1628 97.8323 29.3035 97.7288 29.4675 97.6663C29.6335 97.6038 29.8191 97.5725 30.0242 97.5725C30.1902 97.5725 30.3425 97.593 30.4812 97.634C30.6218 97.6731 30.7468 97.7366 30.8562 97.8245C30.9656 97.9104 31.0583 98.0256 31.1345 98.1702C31.2126 98.3127 31.2722 98.4875 31.3132 98.6946C31.3542 98.9016 31.3748 99.1448 31.3748 99.4241ZM30.8298 100.162V99.3333C30.8298 99.1418 30.8181 98.9739 30.7947 98.8293C30.7732 98.6829 30.741 98.5579 30.698 98.4543C30.655 98.3508 30.6003 98.2668 30.5339 98.2024C30.4695 98.1379 30.3943 98.0911 30.3083 98.0618C30.2244 98.0305 30.1296 98.0149 30.0242 98.0149C29.8953 98.0149 29.781 98.0393 29.6814 98.0881C29.5818 98.135 29.4978 98.2102 29.4294 98.3137C29.363 98.4172 29.3123 98.553 29.2771 98.7209C29.2419 98.8889 29.2244 99.093 29.2244 99.3333V100.162C29.2244 100.354 29.2351 100.523 29.2566 100.669C29.28 100.816 29.3142 100.943 29.3591 101.05C29.4041 101.156 29.4587 101.242 29.5232 101.311C29.5876 101.379 29.6619 101.43 29.7458 101.463C29.8318 101.494 29.9265 101.51 30.03 101.51C30.1628 101.51 30.2791 101.485 30.3787 101.434C30.4783 101.383 30.5613 101.304 30.6277 101.197C30.696 101.087 30.7468 100.948 30.78 100.778C30.8132 100.606 30.8298 100.401 30.8298 100.162Z" fill="#7E7B7B"/>
<path d="M27.3733 118.846L26.9397 118.735L27.1536 116.611H29.342V117.112H27.6135L27.4846 118.272C27.5627 118.227 27.6614 118.185 27.7805 118.146C27.9016 118.107 28.0403 118.087 28.1965 118.087C28.3938 118.087 28.5706 118.121 28.7268 118.19C28.8831 118.256 29.0159 118.352 29.1252 118.477C29.2366 118.602 29.3215 118.752 29.3801 118.928C29.4387 119.104 29.468 119.3 29.468 119.517C29.468 119.722 29.4397 119.91 29.3831 120.082C29.3284 120.254 29.2454 120.405 29.134 120.533C29.0227 120.66 28.8821 120.759 28.7122 120.829C28.5442 120.9 28.3459 120.935 28.1174 120.935C27.9456 120.935 27.7825 120.911 27.6282 120.865C27.4758 120.816 27.3391 120.742 27.218 120.645C27.0989 120.545 27.0012 120.422 26.925 120.276C26.8508 120.127 26.804 119.953 26.7844 119.754H27.3C27.3235 119.914 27.3704 120.049 27.4407 120.158C27.511 120.268 27.6028 120.351 27.7161 120.407C27.8313 120.462 27.9651 120.49 28.1174 120.49C28.2463 120.49 28.3606 120.467 28.4602 120.422C28.5598 120.377 28.6438 120.313 28.7122 120.229C28.7805 120.145 28.8323 120.043 28.8674 119.924C28.9045 119.805 28.9231 119.671 28.9231 119.523C28.9231 119.388 28.9045 119.263 28.8674 119.148C28.8303 119.032 28.7747 118.932 28.7004 118.846C28.6282 118.76 28.5393 118.694 28.4338 118.647C28.3284 118.598 28.2073 118.573 28.0706 118.573C27.8889 118.573 27.7512 118.598 27.6575 118.647C27.5657 118.696 27.4709 118.762 27.3733 118.846ZM32.7405 118.404V119.054C32.7405 119.404 32.7092 119.698 32.6467 119.939C32.5842 120.179 32.4944 120.372 32.3772 120.519C32.26 120.665 32.1184 120.772 31.9524 120.838C31.7883 120.903 31.6028 120.935 31.3958 120.935C31.2317 120.935 31.0803 120.914 30.9417 120.873C30.803 120.832 30.678 120.767 30.5667 120.677C30.4573 120.585 30.3635 120.466 30.2854 120.32C30.2073 120.173 30.1477 119.995 30.1067 119.786C30.0657 119.577 30.0452 119.333 30.0452 119.054V118.404C30.0452 118.054 30.0764 117.761 30.1389 117.525C30.2034 117.288 30.2942 117.099 30.4114 116.956C30.5286 116.812 30.6692 116.708 30.8333 116.646C30.9993 116.583 31.1848 116.552 31.3899 116.552C31.5559 116.552 31.7083 116.573 31.8469 116.614C31.9875 116.653 32.1125 116.716 32.2219 116.804C32.3313 116.89 32.4241 117.005 32.5002 117.15C32.5784 117.292 32.6379 117.467 32.679 117.674C32.72 117.881 32.7405 118.124 32.7405 118.404ZM32.1956 119.142V118.313C32.1956 118.121 32.1838 117.953 32.1604 117.809C32.1389 117.662 32.1067 117.537 32.0637 117.434C32.0208 117.33 31.9661 117.246 31.8997 117.182C31.8352 117.117 31.76 117.071 31.6741 117.041C31.5901 117.01 31.4954 116.994 31.3899 116.994C31.261 116.994 31.1467 117.019 31.0471 117.068C30.9475 117.115 30.8635 117.19 30.7952 117.293C30.7288 117.397 30.678 117.532 30.6428 117.7C30.6077 117.868 30.5901 118.073 30.5901 118.313V119.142C30.5901 119.333 30.6008 119.502 30.6223 119.649C30.6458 119.795 30.6799 119.922 30.7249 120.03C30.7698 120.135 30.8245 120.222 30.8889 120.29C30.9534 120.359 31.0276 120.409 31.1116 120.443C31.1975 120.474 31.2922 120.49 31.3958 120.49C31.5286 120.49 31.6448 120.464 31.7444 120.413C31.844 120.363 31.927 120.283 31.9934 120.176C32.0618 120.067 32.1125 119.927 32.1458 119.757C32.179 119.585 32.1956 119.38 32.1956 119.142Z" fill="#7E7B7B"/>
<path d="M33.1016 137.383V138.033C33.1016 138.383 33.0703 138.678 33.0078 138.918C32.9453 139.158 32.8555 139.352 32.7383 139.498C32.6211 139.645 32.4795 139.751 32.3135 139.817C32.1494 139.882 31.9639 139.914 31.7569 139.914C31.5928 139.914 31.4414 139.894 31.3028 139.853C31.1641 139.812 31.0391 139.746 30.9278 139.656C30.8184 139.564 30.7246 139.445 30.6465 139.299C30.5684 139.152 30.5088 138.975 30.4678 138.766C30.4268 138.557 30.4063 138.312 30.4063 138.033V137.383C30.4063 137.033 30.4375 136.74 30.5 136.504C30.5645 136.268 30.6553 136.078 30.7725 135.936C30.8897 135.791 31.0303 135.688 31.1944 135.625C31.3604 135.562 31.5459 135.531 31.751 135.531C31.917 135.531 32.0694 135.552 32.208 135.593C32.3487 135.632 32.4737 135.695 32.583 135.783C32.6924 135.869 32.7852 135.984 32.8613 136.129C32.9395 136.271 32.999 136.446 33.0401 136.653C33.0811 136.86 33.1016 137.104 33.1016 137.383ZM32.5567 138.121V137.292C32.5567 137.101 32.5449 136.933 32.5215 136.788C32.5 136.642 32.4678 136.517 32.4248 136.413C32.3819 136.31 32.3272 136.226 32.2608 136.161C32.1963 136.097 32.1211 136.05 32.0352 136.021C31.9512 135.989 31.8565 135.974 31.751 135.974C31.6221 135.974 31.5078 135.998 31.4082 136.047C31.3086 136.094 31.2246 136.169 31.1563 136.272C31.0899 136.376 31.0391 136.512 31.0039 136.68C30.9688 136.848 30.9512 137.052 30.9512 137.292V138.121C30.9512 138.312 30.9619 138.481 30.9834 138.628C31.0069 138.774 31.041 138.901 31.086 139.009C31.1309 139.114 31.1856 139.201 31.25 139.27C31.3145 139.338 31.3887 139.389 31.4727 139.422C31.5586 139.453 31.6533 139.469 31.7569 139.469C31.8897 139.469 32.0059 139.443 32.1055 139.393C32.2051 139.342 32.2881 139.263 32.3545 139.155C32.4229 139.046 32.4737 138.906 32.5069 138.736C32.5401 138.564 32.5567 138.359 32.5567 138.121Z" fill="#7E7B7B"/>
<path d="M54.9042 149.801V154.09H54.3622V150.478L53.2694 150.876V150.387L54.8192 149.801H54.9042ZM57.1835 152.06L56.7499 151.948L56.9638 149.824H59.1523V150.325H57.4237L57.2948 151.485C57.373 151.44 57.4716 151.398 57.5907 151.359C57.7118 151.32 57.8505 151.301 58.0067 151.301C58.204 151.301 58.3808 151.335 58.537 151.403C58.6933 151.47 58.8261 151.565 58.9355 151.69C59.0468 151.815 59.1317 151.966 59.1903 152.142C59.2489 152.317 59.2782 152.514 59.2782 152.73C59.2782 152.936 59.2499 153.124 59.1933 153.296C59.1386 153.468 59.0556 153.618 58.9442 153.747C58.8329 153.874 58.6923 153.973 58.5224 154.043C58.3544 154.113 58.1562 154.148 57.9276 154.148C57.7558 154.148 57.5927 154.125 57.4384 154.078C57.286 154.029 57.1493 153.956 57.0282 153.858C56.9091 153.759 56.8114 153.636 56.7353 153.489C56.661 153.341 56.6142 153.167 56.5946 152.968H57.1103C57.1337 153.128 57.1806 153.263 57.2509 153.372C57.3212 153.481 57.413 153.564 57.5263 153.621C57.6415 153.676 57.7753 153.703 57.9276 153.703C58.0566 153.703 58.1708 153.681 58.2704 153.636C58.37 153.591 58.454 153.526 58.5224 153.442C58.5907 153.358 58.6425 153.257 58.6776 153.138C58.7148 153.019 58.7333 152.885 58.7333 152.736C58.7333 152.602 58.7148 152.477 58.6776 152.361C58.6405 152.246 58.5849 152.146 58.5107 152.06C58.4384 151.974 58.3495 151.907 58.2441 151.86C58.1386 151.812 58.0175 151.787 57.8808 151.787C57.6991 151.787 57.5614 151.812 57.4677 151.86C57.3759 151.909 57.2812 151.976 57.1835 152.06Z" fill="#7E7B7B"/>
<path d="M71.4967 149.801V154.09H70.9547V150.478L69.862 150.876V150.387L71.4118 149.801H71.4967ZM75.1706 149.818H75.2174V150.278H75.1706C74.8835 150.278 74.6432 150.325 74.4499 150.419C74.2565 150.511 74.1032 150.635 73.9899 150.791C73.8766 150.945 73.7946 151.119 73.7438 151.312C73.695 151.506 73.6706 151.702 73.6706 151.901V152.528C73.6706 152.718 73.693 152.886 73.7379 153.032C73.7829 153.177 73.8444 153.299 73.9225 153.398C74.0006 153.498 74.0885 153.573 74.1862 153.624C74.2858 153.675 74.3893 153.7 74.4967 153.7C74.6217 153.7 74.7331 153.677 74.8307 153.63C74.9284 153.581 75.0104 153.514 75.0768 153.428C75.1452 153.34 75.1969 153.236 75.2321 153.117C75.2672 152.998 75.2848 152.867 75.2848 152.725C75.2848 152.598 75.2692 152.476 75.2379 152.358C75.2067 152.239 75.1588 152.134 75.0944 152.042C75.0299 151.948 74.9489 151.875 74.8512 151.822C74.7555 151.768 74.6413 151.74 74.5085 151.74C74.3581 151.74 74.2174 151.777 74.0866 151.852C73.9577 151.924 73.8512 152.02 73.7672 152.139C73.6852 152.256 73.6383 152.384 73.6266 152.522L73.3395 152.52C73.3669 152.301 73.4176 152.114 73.4919 151.96C73.568 151.804 73.6618 151.677 73.7731 151.579C73.8864 151.479 74.0124 151.407 74.151 151.362C74.2917 151.315 74.4401 151.292 74.5963 151.292C74.8092 151.292 74.9928 151.332 75.1471 151.412C75.3014 151.492 75.4284 151.6 75.528 151.734C75.6276 151.867 75.7008 152.018 75.7477 152.186C75.7965 152.352 75.821 152.522 75.821 152.698C75.821 152.899 75.7926 153.088 75.736 153.264C75.6794 153.439 75.5944 153.594 75.4811 153.727C75.3698 153.859 75.2321 153.963 75.068 154.037C74.904 154.111 74.7135 154.148 74.4967 154.148C74.2663 154.148 74.0651 154.102 73.8932 154.008C73.7213 153.912 73.5788 153.785 73.4655 153.627C73.3522 153.469 73.2672 153.293 73.2106 153.1C73.154 152.906 73.1256 152.71 73.1256 152.511V152.256C73.1256 151.955 73.1559 151.66 73.2165 151.371C73.277 151.082 73.3815 150.82 73.5299 150.586C73.6803 150.352 73.8883 150.165 74.154 150.026C74.4196 149.888 74.7585 149.818 75.1706 149.818Z" fill="#7E7B7B"/>
<path d="M88.0895 149.801V154.09H87.5475V150.478L86.4547 150.876V150.387L88.0045 149.801H88.0895ZM92.4401 149.824V150.129L90.6735 154.09H90.1022L91.8659 150.27H89.5573V149.824H92.4401Z" fill="#7E7B7B"/>
<path d="M104.682 149.801V154.09H104.14V150.478L103.047 150.876V150.387L104.597 149.801H104.682ZM108.965 152.936C108.965 153.195 108.905 153.416 108.784 153.598C108.664 153.777 108.502 153.914 108.297 154.008C108.094 154.102 107.865 154.148 107.609 154.148C107.353 154.148 107.122 154.102 106.917 154.008C106.712 153.914 106.55 153.777 106.431 153.598C106.312 153.416 106.252 153.195 106.252 152.936C106.252 152.766 106.285 152.61 106.349 152.47C106.415 152.327 106.508 152.203 106.627 152.098C106.748 151.992 106.891 151.911 107.055 151.854C107.221 151.796 107.404 151.767 107.603 151.767C107.865 151.767 108.098 151.817 108.303 151.919C108.508 152.019 108.669 152.156 108.787 152.332C108.906 152.508 108.965 152.709 108.965 152.936ZM108.42 152.924C108.42 152.766 108.386 152.626 108.318 152.505C108.249 152.382 108.154 152.286 108.031 152.218C107.908 152.149 107.765 152.115 107.603 152.115C107.437 152.115 107.293 152.149 107.172 152.218C107.053 152.286 106.96 152.382 106.894 152.505C106.828 152.626 106.794 152.766 106.794 152.924C106.794 153.088 106.827 153.229 106.891 153.346C106.957 153.461 107.051 153.55 107.172 153.612C107.295 153.673 107.441 153.703 107.609 153.703C107.777 153.703 107.921 153.673 108.042 153.612C108.163 153.55 108.256 153.461 108.321 153.346C108.387 153.229 108.42 153.088 108.42 152.924ZM108.866 150.935C108.866 151.142 108.811 151.328 108.702 151.494C108.592 151.66 108.443 151.791 108.253 151.887C108.064 151.982 107.849 152.03 107.609 152.03C107.365 152.03 107.147 151.982 106.955 151.887C106.766 151.791 106.618 151.66 106.51 151.494C106.403 151.328 106.349 151.142 106.349 150.935C106.349 150.687 106.403 150.476 106.51 150.302C106.62 150.128 106.769 149.995 106.958 149.903C107.148 149.812 107.364 149.766 107.606 149.766C107.85 149.766 108.067 149.812 108.256 149.903C108.446 149.995 108.594 150.128 108.702 150.302C108.811 150.476 108.866 150.687 108.866 150.935ZM108.324 150.943C108.324 150.801 108.293 150.675 108.233 150.565C108.172 150.456 108.088 150.37 107.981 150.308C107.873 150.243 107.748 150.211 107.606 150.211C107.463 150.211 107.338 150.241 107.231 150.302C107.125 150.36 107.042 150.444 106.982 150.554C106.923 150.663 106.894 150.793 106.894 150.943C106.894 151.09 106.923 151.218 106.982 151.327C107.042 151.437 107.126 151.521 107.234 151.582C107.341 151.643 107.466 151.673 107.609 151.673C107.751 151.673 107.875 151.643 107.981 151.582C108.088 151.521 108.172 151.437 108.233 151.327C108.293 151.218 108.324 151.09 108.324 150.943Z" fill="#7E7B7B"/>
<path d="M121.275 149.801V154.09H120.733V150.478L119.64 150.876V150.387L121.19 149.801H121.275ZM123.407 153.636H123.463C123.776 153.636 124.029 153.592 124.225 153.504C124.42 153.416 124.57 153.298 124.676 153.149C124.781 153.001 124.854 152.834 124.893 152.648C124.932 152.461 124.951 152.269 124.951 152.071V151.418C124.951 151.225 124.929 151.053 124.884 150.902C124.841 150.752 124.78 150.626 124.702 150.524C124.626 150.423 124.539 150.346 124.442 150.293C124.344 150.24 124.24 150.214 124.131 150.214C124.006 150.214 123.894 150.239 123.794 150.29C123.696 150.339 123.613 150.408 123.545 150.498C123.479 150.588 123.428 150.693 123.393 150.814C123.358 150.936 123.34 151.067 123.34 151.21C123.34 151.337 123.356 151.46 123.387 151.579C123.418 151.698 123.466 151.806 123.53 151.901C123.595 151.997 123.675 152.073 123.771 152.13C123.868 152.185 123.983 152.212 124.113 152.212C124.235 152.212 124.348 152.188 124.453 152.142C124.561 152.093 124.655 152.027 124.737 151.945C124.821 151.861 124.888 151.767 124.937 151.661C124.987 151.556 125.017 151.445 125.025 151.33H125.282C125.282 151.492 125.25 151.652 125.186 151.811C125.123 151.967 125.035 152.109 124.922 152.238C124.809 152.367 124.676 152.471 124.524 152.549C124.371 152.625 124.205 152.663 124.026 152.663C123.815 152.663 123.632 152.622 123.478 152.54C123.323 152.458 123.196 152.349 123.097 152.212C122.999 152.075 122.926 151.923 122.877 151.755C122.83 151.585 122.807 151.413 122.807 151.239C122.807 151.036 122.835 150.846 122.892 150.668C122.948 150.49 123.032 150.334 123.144 150.199C123.255 150.062 123.393 149.956 123.557 149.88C123.723 149.804 123.914 149.766 124.131 149.766C124.375 149.766 124.583 149.814 124.755 149.912C124.927 150.01 125.067 150.141 125.174 150.305C125.283 150.469 125.363 150.653 125.414 150.858C125.465 151.063 125.49 151.274 125.49 151.491V151.688C125.49 151.908 125.476 152.133 125.446 152.361C125.419 152.588 125.365 152.805 125.285 153.012C125.207 153.219 125.093 153.404 124.943 153.568C124.792 153.73 124.596 153.859 124.354 153.955C124.113 154.049 123.817 154.096 123.463 154.096H123.407V153.636Z" fill="#7E7B7B"/>
<defs>
<filter id="filter0_d_281_1220" x="107.852" y="48.1934" width="160.148" height="110.455" filterUnits="userSpaceOnUse" color-interpolation-filters="sRGB">
<feFlood flood-opacity="0" result="BackgroundImageFix"/>
<feColorMatrix in="SourceAlpha" type="matrix" values="0 0 0 0 0 0 0 0 0 0 0 0 0 0 0 0 0 0 127 0" result="hardAlpha"/>
<feMorphology radius="1" operator="dilate" in="SourceAlpha" result="effect1_dropShadow_281_1220"/>
<feOffset dx="1" dy="2"/>
<feGaussianBlur stdDeviation="2.5"/>
<feComposite in2="hardAlpha" operator="out"/>
<feColorMatrix type="matrix" values="0 0 0 0 0 0 0 0 0 0 0 0 0 0 0 0 0 0 0.15 0"/>
<feBlend mode="normal" in2="BackgroundImageFix" result="effect1_dropShadow_281_1220"/>
<feBlend mode="normal" in="SourceGraphic" in2="effect1_dropShadow_281_1220" result="shape"/>
</filter>
<filter id="filter1_dd_281_1220" x="206.728" y="82.4309" width="13.1509" height="13.2529" filterUnits="userSpaceOnUse" color-interpolation-filters="sRGB">
<feFlood flood-opacity="0" result="BackgroundImageFix"/>
<feColorMatrix in="SourceAlpha" type="matrix" values="0 0 0 0 0 0 0 0 0 0 0 0 0 0 0 0 0 0 127 0" result="hardAlpha"/>
<feOffset dy="2"/>
<feGaussianBlur stdDeviation="2"/>
<feColorMatrix type="matrix" values="0 0 0 0 0.196487 0 0 0 0 0.196487 0 0 0 0 0.279476 0 0 0 0.06 0"/>
<feBlend mode="multiply" in2="BackgroundImageFix" result="effect1_dropShadow_281_1220"/>
<feColorMatrix in="SourceAlpha" type="matrix" values="0 0 0 0 0 0 0 0 0 0 0 0 0 0 0 0 0 0 127 0" result="hardAlpha"/>
<feOffset dy="2"/>
<feGaussianBlur stdDeviation="1"/>
<feColorMatrix type="matrix" values="0 0 0 0 0.196487 0 0 0 0 0.196487 0 0 0 0 0.279476 0 0 0 0.06 0"/>
<feBlend mode="multiply" in2="effect1_dropShadow_281_1220" result="effect2_dropShadow_281_1220"/>
<feBlend mode="normal" in="SourceGraphic" in2="effect2_dropShadow_281_1220" result="shape"/>
</filter>
<filter id="filter2_dd_281_1220" x="229.584" y="73.6748" width="13.1509" height="13.2529" filterUnits="userSpaceOnUse" color-interpolation-filters="sRGB">
<feFlood flood-opacity="0" result="BackgroundImageFix"/>
<feColorMatrix in="SourceAlpha" type="matrix" values="0 0 0 0 0 0 0 0 0 0 0 0 0 0 0 0 0 0 127 0" result="hardAlpha"/>
<feOffset dy="2"/>
<feGaussianBlur stdDeviation="2"/>
<feColorMatrix type="matrix" values="0 0 0 0 0.196487 0 0 0 0 0.196487 0 0 0 0 0.279476 0 0 0 0.06 0"/>
<feBlend mode="multiply" in2="BackgroundImageFix" result="effect1_dropShadow_281_1220"/>
<feColorMatrix in="SourceAlpha" type="matrix" values="0 0 0 0 0 0 0 0 0 0 0 0 0 0 0 0 0 0 127 0" result="hardAlpha"/>
<feOffset dy="2"/>
<feGaussianBlur stdDeviation="1"/>
<feColorMatrix type="matrix" values="0 0 0 0 0.196487 0 0 0 0 0.196487 0 0 0 0 0.279476 0 0 0 0.06 0"/>
<feBlend mode="multiply" in2="effect1_dropShadow_281_1220" result="effect2_dropShadow_281_1220"/>
<feBlend mode="normal" in="SourceGraphic" in2="effect2_dropShadow_281_1220" result="shape"/>
</filter>
<filter id="filter3_dd_281_1220" x="218.8" y="95.1216" width="13.1509" height="13.2529" filterUnits="userSpaceOnUse" color-interpolation-filters="sRGB">
<feFlood flood-opacity="0" result="BackgroundImageFix"/>
<feColorMatrix in="SourceAlpha" type="matrix" values="0 0 0 0 0 0 0 0 0 0 0 0 0 0 0 0 0 0 127 0" result="hardAlpha"/>
<feOffset dy="2"/>
<feGaussianBlur stdDeviation="2"/>
<feColorMatrix type="matrix" values="0 0 0 0 0.196487 0 0 0 0 0.196487 0 0 0 0 0.279476 0 0 0 0.06 0"/>
<feBlend mode="multiply" in2="BackgroundImageFix" result="effect1_dropShadow_281_1220"/>
<feColorMatrix in="SourceAlpha" type="matrix" values="0 0 0 0 0 0 0 0 0 0 0 0 0 0 0 0 0 0 127 0" result="hardAlpha"/>
<feOffset dy="2"/>
<feGaussianBlur stdDeviation="1"/>
<feColorMatrix type="matrix" values="0 0 0 0 0.196487 0 0 0 0 0.196487 0 0 0 0 0.279476 0 0 0 0.06 0"/>
<feBlend mode="multiply" in2="effect1_dropShadow_281_1220" result="effect2_dropShadow_281_1220"/>
<feBlend mode="normal" in="SourceGraphic" in2="effect2_dropShadow_281_1220" result="shape"/>
</filter>
<filter id="filter4_dd_281_1220" x="194.185" y="88.8787" width="13.1509" height="13.2529" filterUnits="userSpaceOnUse" color-interpolation-filters="sRGB">
<feFlood flood-opacity="0" result="BackgroundImageFix"/>
<feColorMatrix in="SourceAlpha" type="matrix" values="0 0 0 0 0 0 0 0 0 0 0 0 0 0 0 0 0 0 127 0" result="hardAlpha"/>
<feOffset dy="2"/>
<feGaussianBlur stdDeviation="2"/>
<feColorMatrix type="matrix" values="0 0 0 0 0.196487 0 0 0 0 0.196487 0 0 0 0 0.279476 0 0 0 0.06 0"/>
<feBlend mode="multiply" in2="BackgroundImageFix" result="effect1_dropShadow_281_1220"/>
<feColorMatrix in="SourceAlpha" type="matrix" values="0 0 0 0 0 0 0 0 0 0 0 0 0 0 0 0 0 0 127 0" result="hardAlpha"/>
<feOffset dy="2"/>
<feGaussianBlur stdDeviation="1"/>
<feColorMatrix type="matrix" values="0 0 0 0 0.196487 0 0 0 0 0.196487 0 0 0 0 0.279476 0 0 0 0.06 0"/>
<feBlend mode="multiply" in2="effect1_dropShadow_281_1220" result="effect2_dropShadow_281_1220"/>
<feBlend mode="normal" in="SourceGraphic" in2="effect2_dropShadow_281_1220" result="shape"/>
</filter>
<filter id="filter5_dd_281_1220" x="179.731" y="108.469" width="13.1509" height="13.2529" filterUnits="userSpaceOnUse" color-interpolation-filters="sRGB">
<feFlood flood-opacity="0" result="BackgroundImageFix"/>
<feColorMatrix in="SourceAlpha" type="matrix" values="0 0 0 0 0 0 0 0 0 0 0 0 0 0 0 0 0 0 127 0" result="hardAlpha"/>
<feOffset dy="2"/>
<feGaussianBlur stdDeviation="2"/>
<feColorMatrix type="matrix" values="0 0 0 0 0.196487 0 0 0 0 0.196487 0 0 0 0 0.279476 0 0 0 0.06 0"/>
<feBlend mode="multiply" in2="BackgroundImageFix" result="effect1_dropShadow_281_1220"/>
<feColorMatrix in="SourceAlpha" type="matrix" values="0 0 0 0 0 0 0 0 0 0 0 0 0 0 0 0 0 0 127 0" result="hardAlpha"/>
<feOffset dy="2"/>
<feGaussianBlur stdDeviation="1"/>
<feColorMatrix type="matrix" values="0 0 0 0 0.196487 0 0 0 0 0.196487 0 0 0 0 0.279476 0 0 0 0.06 0"/>
<feBlend mode="multiply" in2="effect1_dropShadow_281_1220" result="effect2_dropShadow_281_1220"/>
<feBlend mode="normal" in="SourceGraphic" in2="effect2_dropShadow_281_1220" result="shape"/>
</filter>
<filter id="filter6_dd_281_1220" x="167.259" y="101.784" width="13.1509" height="13.2529" filterUnits="userSpaceOnUse" color-interpolation-filters="sRGB">
<feFlood flood-opacity="0" result="BackgroundImageFix"/>
<feColorMatrix in="SourceAlpha" type="matrix" values="0 0 0 0 0 0 0 0 0 0 0 0 0 0 0 0 0 0 127 0" result="hardAlpha"/>
<feOffset dy="2"/>
<feGaussianBlur stdDeviation="2"/>
<feColorMatrix type="matrix" values="0 0 0 0 0.196487 0 0 0 0 0.196487 0 0 0 0 0.279476 0 0 0 0.06 0"/>
<feBlend mode="multiply" in2="BackgroundImageFix" result="effect1_dropShadow_281_1220"/>
<feColorMatrix in="SourceAlpha" type="matrix" values="0 0 0 0 0 0 0 0 0 0 0 0 0 0 0 0 0 0 127 0" result="hardAlpha"/>
<feOffset dy="2"/>
<feGaussianBlur stdDeviation="1"/>
<feColorMatrix type="matrix" values="0 0 0 0 0.196487 0 0 0 0 0.196487 0 0 0 0 0.279476 0 0 0 0.06 0"/>
<feBlend mode="multiply" in2="effect1_dropShadow_281_1220" result="effect2_dropShadow_281_1220"/>
<feBlend mode="normal" in="SourceGraphic" in2="effect2_dropShadow_281_1220" result="shape"/>
</filter>
<filter id="filter7_dd_281_1220" x="153.548" y="120.245" width="13.1509" height="13.2529" filterUnits="userSpaceOnUse" color-interpolation-filters="sRGB">
<feFlood flood-opacity="0" result="BackgroundImageFix"/>
<feColorMatrix in="SourceAlpha" type="matrix" values="0 0 0 0 0 0 0 0 0 0 0 0 0 0 0 0 0 0 127 0" result="hardAlpha"/>
<feOffset dy="2"/>
<feGaussianBlur stdDeviation="2"/>
<feColorMatrix type="matrix" values="0 0 0 0 0.196487 0 0 0 0 0.196487 0 0 0 0 0.279476 0 0 0 0.06 0"/>
<feBlend mode="multiply" in2="BackgroundImageFix" result="effect1_dropShadow_281_1220"/>
<feColorMatrix in="SourceAlpha" type="matrix" values="0 0 0 0 0 0 0 0 0 0 0 0 0 0 0 0 0 0 127 0" result="hardAlpha"/>
<feOffset dy="2"/>
<feGaussianBlur stdDeviation="1"/>
<feColorMatrix type="matrix" values="0 0 0 0 0.196487 0 0 0 0 0.196487 0 0 0 0 0.279476 0 0 0 0.06 0"/>
<feBlend mode="multiply" in2="effect1_dropShadow_281_1220" result="effect2_dropShadow_281_1220"/>
<feBlend mode="normal" in="SourceGraphic" in2="effect2_dropShadow_281_1220" result="shape"/>
</filter>
<filter id="filter8_d_281_1220" x="0" y="17.3521" width="160.148" height="162.648" filterUnits="userSpaceOnUse" color-interpolation-filters="sRGB">
<feFlood flood-opacity="0" result="BackgroundImageFix"/>
<feColorMatrix in="SourceAlpha" type="matrix" values="0 0 0 0 0 0 0 0 0 0 0 0 0 0 0 0 0 0 127 0" result="hardAlpha"/>
<feMorphology radius="1" operator="dilate" in="SourceAlpha" result="effect1_dropShadow_281_1220"/>
<feOffset dx="1" dy="2"/>
<feGaussianBlur stdDeviation="2.5"/>
<feComposite in2="hardAlpha" operator="out"/>
<feColorMatrix type="matrix" values="0 0 0 0 0 0 0 0 0 0 0 0 0 0 0 0 0 0 0.15 0"/>
<feBlend mode="normal" in2="BackgroundImageFix" result="effect1_dropShadow_281_1220"/>
<feBlend mode="normal" in="SourceGraphic" in2="effect1_dropShadow_281_1220" result="shape"/>
</filter>
</defs>
</svg>
