<svg width="1133" height="833" viewBox="0 0 1133 833" fill="none" xmlns="http://www.w3.org/2000/svg">
<path d="M209.895 57.4461C179.366 47.4716 144.855 8.57045 101.053 8.57045C50.0087 8.57045 -15.1679 45.0696 3.16051 95.3497C23.0266 149.848 98.4362 121.506 131.354 137.891C182.789 163.493 192.115 233 261.994 233C303.474 233 338.686 180.452 375.151 165.838C401.698 155.198 476.345 157.875 502.576 129.596C528.791 101.335 536.035 44.1381 494.944 18.546C461.236 -2.44808 397.384 -5.39371 354.245 8.57045C295.077 27.7229 256.066 72.531 209.895 57.4461Z" fill="#F1F6FF"/>
<path d="M983.329 805.556C1049.06 801.986 1103.53 750.96 1114.23 698.155C1124.92 645.351 1100.95 588.447 1019.64 591.564C938.335 594.68 955.004 665.896 935.686 684.497C916.368 703.098 862.221 683.648 859.125 740.917C856.756 784.76 927.561 808.584 983.329 805.556Z" fill="#F1F6FF"/>
<circle cx="866" cy="625.844" r="42" fill="#F1F6FF"/>
<circle cx="83.5" cy="232.5" r="60.5" fill="#F1F6FF"/>
</svg>
