<svg width="49" height="50" viewBox="0 0 49 50" fill="none" xmlns="http://www.w3.org/2000/svg">
<path d="M24.5 0L49 10.7143V14.2857H45.7333C45.7333 14.7693 45.5589 15.1879 45.2102 15.5413C44.8614 15.8947 44.4488 16.0714 43.9724 16.0714H5.0276C4.55122 16.0714 4.13863 15.8947 3.78984 15.5413C3.44106 15.1879 3.26667 14.7693 3.26667 14.2857H0V10.7143L24.5 0ZM6.53333 17.8571H13.0667V39.2857H16.3333V17.8571H22.8667V39.2857H26.1333V17.8571H32.6667V39.2857H35.9333V17.8571H42.4667V39.2857H43.9724C44.4488 39.2857 44.8614 39.4624 45.2102 39.8158C45.5589 40.1693 45.7333 40.5878 45.7333 41.0714V42.8571H3.26667V41.0714C3.26667 40.5878 3.44106 40.1693 3.78984 39.8158C4.13863 39.4624 4.55122 39.2857 5.0276 39.2857H6.53333V17.8571ZM47.2391 44.6429C47.7155 44.6429 48.128 44.8196 48.4768 45.173C48.8256 45.5264 49 45.9449 49 46.4286V50H0V46.4286C0 45.9449 0.174392 45.5264 0.523177 45.173C0.871962 44.8196 1.28455 44.6429 1.76094 44.6429H47.2391Z" fill="#BD1D45"/>
</svg>
